<svg xmlns="http://www.w3.org/2000/svg" width="240" height="272" viewBox="0 0 240 272"><g transform="translate(24 12)" fill="none" stroke-linecap="round" stroke-linejoin="round"><polyline points="6.000,33.375 17.250,22.125" stroke="#6c9dde" stroke-width="0.8" opacity="0.7"/><polyline points="6.000,39.000 29.625,15.375" stroke="#6c9dde" stroke-width="0.8" opacity="0.7"/><polyline points="6.000,44.625 39.750,10.875" stroke="#6c9dde" stroke-width="0.8" opacity="0.7"/><polyline points="6.375,49.875 18.000,38.250" stroke="#6c9dde" stroke-width="0.8" opacity="0.7"/><polyline points="22.875,33.375 48.750,7.500" stroke="#6c9dde" stroke-width="0.8" opacity="0.7"/><polyline points="6.750,55.125 18.000,43.875" stroke="#6c9dde" stroke-width="0.8" opacity="0.7"/><polyline points="35.625,26.250 56.625,5.250" stroke="#6c9dde" stroke-width="0.8" opacity="0.7"/><polyline points="7.500,60.000 18.375,49.125" stroke="#6c9dde" stroke-width="0.8" opacity="0.7"/><polyline points="45.750,21.750 64.125,3.375" stroke="#6c9dde" stroke-width="0.8" opacity="0.7"/><polyline points="8.250,64.875 18.750,54.375" stroke="#6c9dde" stroke-width="0.8" opacity="0.7"/><polyline points="54.375,18.750 71.250,1.875" stroke="#6c9dde" stroke-width="0.8" opacity="0.7"/><polyline points="9.000,69.750 19.500,59.250" stroke="#6c9dde" stroke-width="0.8" opacity="0.7"/><polyline points="62.250,16.500 77.625,1.125" stroke="#6c9dde" stroke-width="0.8" opacity="0.7"/><polyline points="10.125,74.250 20.250,64.125" stroke="#6c9dde" stroke-width="0.8" opacity="0.7"/><polyline points="69.375,15.000 84.000,0.375" stroke="#6c9dde" stroke-width="0.8" opacity="0.7"/><polyline points="10.875,79.125 21.000,69.000" stroke="#6c9dde" stroke-width="0.8" opacity="0.7"/><polyline points="76.125,13.875 90.000,0.000" stroke="#6c9dde" stroke-width="0.8" opacity="0.7"/><polyline points="12.000,83.625 22.125,73.500" stroke="#6c9dde" stroke-width="0.8" opacity="0.7"/><polyline points="82.500,13.125 95.625,0.000" stroke="#6c9dde" stroke-width="0.8" opacity="0.7"/><polyline points="13.500,87.750 23.250,78.000" stroke="#6c9dde" stroke-width="0.8" opacity="0.7"/><polyline points="88.875,12.375 101.250,0.000" stroke="#6c9dde" stroke-width="0.8" opacity="0.7"/><polyline points="14.625,92.250 24.375,82.500" stroke="#6c9dde" stroke-width="0.8" opacity="0.7"/><polyline points="52.875,54.000 70.875,36.000" stroke="#6c9dde" stroke-width="0.8" opacity="0.7"/><polyline points="94.500,12.375 106.500,0.375" stroke="#6c9dde" stroke-width="0.8" opacity="0.7"/><polyline points="16.125,96.375 25.500,87.000" stroke="#6c9dde" stroke-width="0.8" opacity="0.7"/><polyline points="48.375,64.125 81.000,31.500" stroke="#6c9dde" stroke-width="0.8" opacity="0.7"/><polyline points="100.125,12.375 111.750,0.750" stroke="#6c9dde" stroke-width="0.8" opacity="0.7"/><polyline points="17.625,100.500 27.000,91.125" stroke="#6c9dde" stroke-width="0.8" opacity="0.7"/><polyline points="46.500,71.625 88.125,30.000" stroke="#6c9dde" stroke-width="0.8" opacity="0.7"/><polyline points="105.750,12.375 116.625,1.500" stroke="#6c9dde" stroke-width="0.8" opacity="0.7"/><polyline points="19.125,104.625 28.500,95.250" stroke="#6c9dde" stroke-width="0.8" opacity="0.7"/><polyline points="46.125,77.625 63.375,60.375" stroke="#6c9dde" stroke-width="0.8" opacity="0.7"/><polyline points="76.875,46.875 94.500,29.250" stroke="#6c9dde" stroke-width="0.8" opacity="0.7"/><polyline points="111.000,12.750 121.500,2.250" stroke="#6c9dde" stroke-width="0.8" opacity="0.7"/><polyline points="21.000,108.375 30.000,99.375" stroke="#6c9dde" stroke-width="0.8" opacity="0.7"/><polyline points="46.125,83.250 59.625,69.750" stroke="#6c9dde" stroke-width="0.8" opacity="0.7"/><polyline points="86.625,42.750 99.750,29.625" stroke="#6c9dde" stroke-width="0.8" opacity="0.7"/><polyline points="115.875,13.500 126.375,3.000" stroke="#6c9dde" stroke-width="0.8" opacity="0.7"/><polyline points="22.500,112.500 31.875,103.125" stroke="#6c9dde" stroke-width="0.8" opacity="0.7"/><polyline points="46.875,88.125 58.500,76.500" stroke="#6c9dde" stroke-width="0.8" opacity="0.7"/><polyline points="93.375,41.625 105.000,30.000" stroke="#6c9dde" stroke-width="0.8" opacity="0.7"/><polyline points="120.750,14.250 130.875,4.125" stroke="#6c9dde" stroke-width="0.8" opacity="0.7"/><polyline points="24.375,116.250 33.375,107.250" stroke="#6c9dde" stroke-width="0.8" opacity="0.7"/><polyline points="48.000,92.625 58.500,82.125" stroke="#6c9dde" stroke-width="0.8" opacity="0.7"/><polyline points="99.000,41.625 109.500,31.125" stroke="#6c9dde" stroke-width="0.8" opacity="0.7"/><polyline points="125.250,15.375 135.375,5.250" stroke="#6c9dde" stroke-width="0.8" opacity="0.7"/><polyline points="26.250,120.000 35.250,111.000" stroke="#6c9dde" stroke-width="0.8" opacity="0.7"/><polyline points="49.500,96.750 58.875,87.375" stroke="#6c9dde" stroke-width="0.8" opacity="0.7"/><polyline points="103.875,42.375 113.625,32.625" stroke="#6c9dde" stroke-width="0.8" opacity="0.7"/><polyline points="129.750,16.500 139.875,6.375" stroke="#6c9dde" stroke-width="0.8" opacity="0.7"/><polyline points="28.500,123.375 37.125,114.750" stroke="#6c9dde" stroke-width="0.8" opacity="0.7"/><polyline points="51.000,100.875 60.375,91.500" stroke="#6c9dde" stroke-width="0.8" opacity="0.7"/><polyline points="94.125,57.750 97.500,54.375" stroke="#6c9dde" stroke-width="0.8" opacity="0.7"/><polyline points="108.375,43.500 117.750,34.125" stroke="#6c9dde" stroke-width="0.8" opacity="0.7"/><polyline points="134.250,17.625 144.000,7.875" stroke="#6c9dde" stroke-width="0.8" opacity="0.7"/><polyline points="30.375,127.125 39.375,118.125" stroke="#6c9dde" stroke-width="0.8" opacity="0.7"/><polyline points="52.875,104.625 61.875,95.625" stroke="#6c9dde" stroke-width="0.8" opacity="0.7"/><polyline points="88.875,68.625 103.125,54.375" stroke="#6c9dde" stroke-width="0.8" opacity="0.7"/><polyline points="112.500,45.000 121.125,36.375" stroke="#6c9dde" stroke-width="0.8" opacity="0.7"/><polyline points="138.750,18.750 148.125,9.375" stroke="#6c9dde" stroke-width="0.8" opacity="0.7"/><polyline points="32.625,130.500 41.250,121.875" stroke="#6c9dde" stroke-width="0.8" opacity="0.7"/><polyline points="55.125,108.000 63.750,99.375" stroke="#6c9dde" stroke-width="0.8" opacity="0.7"/><polyline points="83.625,79.500 108.750,54.375" stroke="#6c9dde" stroke-width="0.8" opacity="0.7"/><polyline points="115.875,47.250 124.500,38.625" stroke="#6c9dde" stroke-width="0.8" opacity="0.7"/><polyline points="142.875,20.250 152.250,10.875" stroke="#6c9dde" stroke-width="0.8" opacity="0.7"/><polyline points="34.875,133.875 43.500,125.250" stroke="#6c9dde" stroke-width="0.8" opacity="0.7"/><polyline points="57.750,111.000 66.000,102.750" stroke="#6c9dde" stroke-width="0.8" opacity="0.7"/><polyline points="84.000,84.750 105.375,63.375" stroke="#6c9dde" stroke-width="0.8" opacity="0.7"/><polyline points="119.250,49.500 127.875,40.875" stroke="#6c9dde" stroke-width="0.8" opacity="0.7"/><polyline points="147.000,21.750 156.000,12.750" stroke="#6c9dde" stroke-width="0.8" opacity="0.7"/><polyline points="36.750,137.625 45.750,128.625" stroke="#6c9dde" stroke-width="0.8" opacity="0.7"/><polyline points="60.375,114.000 68.625,105.750" stroke="#6c9dde" stroke-width="0.8" opacity="0.7"/><polyline points="89.625,84.750 100.875,73.500" stroke="#6c9dde" stroke-width="0.8" opacity="0.7"/><polyline points="122.250,52.125 130.875,43.500" stroke="#6c9dde" stroke-width="0.8" opacity="0.7"/><polyline points="150.750,23.625 159.750,14.625" stroke="#6c9dde" stroke-width="0.8" opacity="0.7"/><polyline points="39.375,140.625 48.000,132.000" stroke="#6c9dde" stroke-width="0.8" opacity="0.7"/><polyline points="63.375,116.625 71.625,108.375" stroke="#6c9dde" stroke-width="0.8" opacity="0.7"/><polyline points="90.750,89.250 106.500,73.500" stroke="#6c9dde" stroke-width="0.8" opacity="0.7"/><polyline points="124.875,55.125 133.500,46.500" stroke="#6c9dde" stroke-width="0.8" opacity="0.7"/><polyline points="154.500,25.500 163.500,16.500" stroke="#6c9dde" stroke-width="0.8" opacity="0.7"/><polyline points="41.625,144.000 50.250,135.375" stroke="#6c9dde" stroke-width="0.8" opacity="0.7"/><polyline points="66.375,119.250 74.625,111.000" stroke="#6c9dde" stroke-width="0.8" opacity="0.7"/><polyline points="87.750,97.875 112.125,73.500" stroke="#6c9dde" stroke-width="0.8" opacity="0.7"/><polyline points="127.500,58.125 136.125,49.500" stroke="#6c9dde" stroke-width="0.8" opacity="0.7"/><polyline points="158.250,27.375 167.250,18.375" stroke="#6c9dde" stroke-width="0.8" opacity="0.7"/><polyline points="44.250,147.000 52.500,138.750" stroke="#6c9dde" stroke-width="0.8" opacity="0.7"/><polyline points="69.750,121.500 78.375,112.875" stroke="#6c9dde" stroke-width="0.8" opacity="0.7"/><polyline points="85.125,106.125 93.375,97.875" stroke="#6c9dde" stroke-width="0.8" opacity="0.7"/><polyline points="129.375,61.875 138.375,52.875" stroke="#6c9dde" stroke-width="0.8" opacity="0.7"/><polyline points="162.000,29.250 171.000,20.250" stroke="#6c9dde" stroke-width="0.8" opacity="0.7"/><polyline points="46.500,150.375 55.125,141.750" stroke="#6c9dde" stroke-width="0.8" opacity="0.7"/><polyline points="73.125,123.750 82.125,114.750" stroke="#6c9dde" stroke-width="0.8" opacity="0.7"/><polyline points="131.250,65.625 140.250,56.625" stroke="#6c9dde" stroke-width="0.8" opacity="0.7"/><polyline points="165.750,31.125 174.375,22.500" stroke="#6c9dde" stroke-width="0.8" opacity="0.7"/><polyline points="49.125,153.375 57.750,144.750" stroke="#6c9dde" stroke-width="0.8" opacity="0.7"/><polyline points="76.875,125.625 86.625,115.875" stroke="#6c9dde" stroke-width="0.8" opacity="0.7"/><polyline points="132.750,69.750 142.125,60.375" stroke="#6c9dde" stroke-width="0.8" opacity="0.7"/><polyline points="169.125,33.375 177.750,24.750" stroke="#6c9dde" stroke-width="0.8" opacity="0.7"/><polyline points="51.750,156.375 60.375,147.750" stroke="#6c9dde" stroke-width="0.8" opacity="0.7"/><polyline points="81.000,127.125 91.125,117.000" stroke="#6c9dde" stroke-width="0.8" opacity="0.7"/><polyline points="133.500,74.625 143.625,64.500" stroke="#6c9dde" stroke-width="0.8" opacity="0.7"/><polyline points="172.500,35.625 181.125,27.000" stroke="#6c9dde" stroke-width="0.8" opacity="0.7"/><polyline points="54.375,159.375 63.000,150.750" stroke="#6c9dde" stroke-width="0.8" opacity="0.7"/><polyline points="85.500,128.250 96.375,117.375" stroke="#6c9dde" stroke-width="0.8" opacity="0.7"/><polyline points="133.875,79.875 144.750,69.000" stroke="#6c9dde" stroke-width="0.8" opacity="0.7"/><polyline points="173.250,40.500 184.500,29.250" stroke="#6c9dde" stroke-width="0.8" opacity="0.7"/><polyline points="57.375,162.000 65.625,153.750" stroke="#6c9dde" stroke-width="0.8" opacity="0.7"/><polyline points="90.375,129.000 102.750,116.625" stroke="#6c9dde" stroke-width="0.8" opacity="0.7"/><polyline points="133.125,86.250 145.500,73.875" stroke="#6c9dde" stroke-width="0.8" opacity="0.7"/><polyline points="173.250,46.125 185.625,33.750" stroke="#6c9dde" stroke-width="0.8" opacity="0.7"/><polyline points="60.000,165.000 68.625,156.375" stroke="#6c9dde" stroke-width="0.8" opacity="0.7"/><polyline points="95.625,129.375 111.000,114.000" stroke="#6c9dde" stroke-width="0.8" opacity="0.7"/><polyline points="130.500,94.500 145.875,79.125" stroke="#6c9dde" stroke-width="0.8" opacity="0.7"/><polyline points="172.875,52.125 185.625,39.375" stroke="#6c9dde" stroke-width="0.8" opacity="0.7"/><polyline points="63.000,167.625 71.250,159.375" stroke="#6c9dde" stroke-width="0.8" opacity="0.7"/><polyline points="101.625,129.000 145.500,85.125" stroke="#6c9dde" stroke-width="0.8" opacity="0.7"/><polyline points="172.125,58.500 185.625,45.000" stroke="#6c9dde" stroke-width="0.8" opacity="0.7"/><polyline points="66.000,170.250 74.250,162.000" stroke="#6c9dde" stroke-width="0.8" opacity="0.7"/><polyline points="108.375,127.875 144.375,91.875" stroke="#6c9dde" stroke-width="0.8" opacity="0.7"/><polyline points="171.000,65.250 185.250,51.000" stroke="#6c9dde" stroke-width="0.8" opacity="0.7"/><polyline points="69.000,172.875 77.250,164.625" stroke="#6c9dde" stroke-width="0.8" opacity="0.7"/><polyline points="117.375,124.500 141.375,100.500" stroke="#6c9dde" stroke-width="0.8" opacity="0.7"/><polyline points="169.500,72.375 184.500,57.375" stroke="#6c9dde" stroke-width="0.8" opacity="0.7"/><polyline points="72.000,175.500 80.625,166.875" stroke="#6c9dde" stroke-width="0.8" opacity="0.7"/><polyline points="167.625,79.875 183.750,63.750" stroke="#6c9dde" stroke-width="0.8" opacity="0.7"/><polyline points="75.000,178.125 83.625,169.500" stroke="#6c9dde" stroke-width="0.8" opacity="0.7"/><polyline points="165.375,87.750 182.625,70.500" stroke="#6c9dde" stroke-width="0.8" opacity="0.7"/><polyline points="78.375,180.375 87.000,171.750" stroke="#6c9dde" stroke-width="0.8" opacity="0.7"/><polyline points="162.375,96.375 181.125,77.625" stroke="#6c9dde" stroke-width="0.8" opacity="0.7"/><polyline points="81.375,183.000 90.000,174.375" stroke="#6c9dde" stroke-width="0.8" opacity="0.7"/><polyline points="158.250,106.125 178.875,85.500" stroke="#6c9dde" stroke-width="0.8" opacity="0.7"/><polyline points="84.750,185.250 93.375,176.625" stroke="#6c9dde" stroke-width="0.8" opacity="0.7"/><polyline points="152.625,117.375 176.625,93.375" stroke="#6c9dde" stroke-width="0.8" opacity="0.7"/><polyline points="88.125,187.500 102.375,173.250" stroke="#6c9dde" stroke-width="0.8" opacity="0.7"/><polyline points="143.250,132.375 173.250,102.375" stroke="#6c9dde" stroke-width="0.8" opacity="0.7"/><polyline points="91.875,189.375 169.125,112.125" stroke="#6c9dde" stroke-width="0.8" opacity="0.7"/><polyline points="95.250,191.625 163.500,123.375" stroke="#6c9dde" stroke-width="0.8" opacity="0.7"/><polyline points="108.375,184.125 154.125,138.375" stroke="#6c9dde" stroke-width="0.8" opacity="0.7"/><polyline points="89.062,0.000 105.375,-0.188 105.750,0.188 113.250,0.562 113.625,0.938 116.250,0.938 116.625,1.312 121.125,1.688 121.500,2.062 123.000,2.062 123.375,2.438 128.625,3.188 129.000,3.562 130.125,3.562 130.500,3.938 136.125,5.062 138.750,6.188 139.875,6.188 140.250,6.562 146.625,8.438 147.750,9.188 149.625,9.562 152.625,11.062 153.375,11.062 168.000,18.188 168.750,18.938 174.375,21.938 181.125,26.438 182.250,27.562 183.750,28.312 185.812,30.375 185.812,45.375 185.438,45.750 185.062,55.500 184.688,55.875 184.688,58.500 184.312,58.875 184.312,61.500 183.938,61.875 183.938,64.125 183.562,64.500 183.188,68.625 182.812,69.000 182.062,74.250 181.312,76.125 181.312,77.625 180.938,78.000 179.812,83.625 179.062,85.125 179.062,86.250 178.312,87.750 178.312,88.875 177.938,89.250 175.688,96.750 174.938,97.875 174.188,100.875 173.438,102.000 172.688,104.625 171.562,106.500 171.562,107.250 170.438,109.125 170.438,109.875 168.188,114.000 168.188,114.750 166.688,117.750 165.938,118.500 163.688,123.375 162.938,124.125 159.562,130.500 152.812,140.625 147.188,148.125 145.688,149.625 145.688,150.000 141.562,154.500 141.562,154.875 138.188,158.250 138.188,158.625 129.000,167.812 128.625,167.812 124.875,171.562 124.500,171.562 120.000,175.688 119.625,175.688 113.250,180.938 108.000,184.312 106.875,185.438 100.312,189.375 96.375,191.812 94.875,191.812 91.500,189.562 89.625,188.812 82.875,184.312 81.750,183.188 80.250,182.438 74.250,177.938 70.875,174.938 70.500,174.938 65.250,170.062 64.875,170.062 51.938,157.125 51.938,156.750 48.938,153.750 48.938,153.375 42.562,145.875 35.062,135.375 34.688,134.250 32.438,131.250 32.062,130.125 29.062,125.625 21.938,111.750 21.938,111.000 20.438,108.375 20.438,107.625 19.312,105.750 19.312,105.000 17.062,100.125 15.938,96.000 15.188,94.875 15.188,94.125 14.438,92.625 14.438,91.500 14.062,91.125 14.062,90.375 12.938,87.750 12.938,86.625 12.188,85.125 11.062,79.500 10.312,78.000 9.938,74.625 9.562,74.250 9.188,71.250 8.812,70.875 8.812,69.000 8.438,68.625 8.062,64.500 7.688,64.125 7.688,62.250 7.312,61.875 6.938,56.250 6.562,55.875 6.188,46.500 5.812,46.125 5.812,30.000 12.000,25.312 13.125,24.938 17.250,21.938 22.875,18.938 23.625,18.188 37.500,11.438 38.250,11.438 43.125,9.188 43.875,9.188 44.250,8.812 45.000,8.812 53.250,5.812 54.375,5.812 55.875,5.062 57.000,5.062 57.375,4.688 58.500,4.688 58.875,4.312 60.000,4.312 60.375,3.938 61.500,3.938 63.375,3.188 64.875,3.188 65.250,2.812 66.750,2.812 67.125,2.438 68.625,2.438 69.000,2.062 70.875,2.062 71.250,1.688 73.500,1.688 73.875,1.312 76.125,1.312 76.500,0.938 79.500,0.938 79.875,0.562 83.250,0.562 83.625,0.188 89.062,0.000" stroke="#0052d9" stroke-width="1.35" opacity="1"/><polyline points="96.000,12.188 95.625,12.562 82.875,12.938 82.500,13.312 79.500,13.312 79.125,13.688 73.875,14.062 73.500,14.438 71.625,14.438 71.250,14.812 66.000,15.562 65.625,15.938 64.500,15.938 64.125,16.312 58.500,17.438 55.875,18.562 54.750,18.562 54.375,18.938 50.250,20.062 49.125,20.812 46.125,21.562 44.250,22.688 41.625,23.438 38.250,25.312 37.500,25.312 28.125,30.188 27.375,30.938 22.500,33.562 18.188,36.750 18.188,43.875 18.562,44.250 18.938,54.000 19.312,54.375 19.312,57.000 19.688,57.375 19.688,60.000 20.062,60.375 20.062,62.250 20.438,62.625 20.438,64.875 20.812,65.250 21.188,69.000 21.938,70.875 21.938,72.375 22.312,72.750 22.312,74.250 22.688,74.625 23.438,78.750 24.188,80.250 24.188,81.375 25.688,85.500 25.688,86.625 26.062,87.000 27.562,92.250 28.312,93.375 28.688,95.250 29.438,96.375 29.812,98.250 31.688,102.000 31.688,102.750 33.188,105.375 33.188,106.125 38.812,117.375 39.562,118.125 40.312,120.000 41.062,120.750 43.688,125.625 50.062,135.000 56.438,142.875 56.438,143.250 61.688,148.875 61.688,149.250 72.750,160.312 73.125,160.312 78.375,165.188 78.750,165.188 80.250,166.688 80.625,166.688 82.125,168.188 88.125,172.688 95.625,177.562 100.125,174.938 101.250,173.812 103.875,172.312 109.875,167.812 111.750,165.938 112.125,165.938 116.250,162.188 116.625,162.188 120.000,158.812 120.375,158.812 128.438,150.750 128.438,150.375 134.438,144.000 134.438,143.625 141.188,135.375 147.562,126.000 147.938,124.875 149.438,123.000 150.188,121.125 152.062,118.500 153.938,114.375 154.688,113.625 157.312,108.375 157.312,107.625 160.312,101.625 160.312,100.875 162.562,96.000 163.312,93.000 164.062,91.875 164.062,91.125 165.562,87.375 165.562,86.250 166.688,83.625 166.688,82.500 167.438,81.000 167.438,79.875 167.812,79.500 167.812,78.375 168.188,78.000 168.188,76.875 168.562,76.500 168.562,75.375 169.312,73.500 169.312,72.000 170.062,70.125 170.812,64.500 171.188,64.125 171.188,61.875 171.562,61.500 171.562,59.250 171.938,58.875 171.938,56.250 172.312,55.875 172.312,52.875 172.688,52.500 172.688,48.375 173.062,48.000 173.062,39.375 173.438,39.000 173.438,36.750 172.500,35.812 168.000,32.812 166.875,32.438 165.000,30.938 151.125,23.812 150.375,23.812 148.500,22.688 147.750,22.688 144.750,21.188 142.875,20.812 141.750,20.062 141.000,20.062 136.125,18.188 135.000,18.188 133.500,17.438 132.375,17.438 130.875,16.688 129.750,16.688 129.375,16.312 128.250,16.312 126.375,15.562 124.875,15.562 124.500,15.188 123.000,15.188 122.625,14.812 121.125,14.812 120.750,14.438 118.875,14.438 118.500,14.062 116.625,14.062 116.250,13.688 114.000,13.688 113.625,13.312 111.000,13.312 110.625,12.938 106.875,12.938 106.500,12.562 97.500,12.562 97.125,12.188 96.000,12.188" stroke="#0052d9" stroke-width="1.35" opacity="1"/><polyline points="92.438,29.250 99.375,29.062 99.750,29.438 102.750,29.438 103.125,29.812 105.000,29.812 105.375,30.188 106.875,30.188 107.250,30.562 109.875,30.938 110.250,31.312 114.375,32.438 116.250,33.562 117.000,33.562 119.250,34.688 120.000,35.438 121.875,36.188 125.250,38.438 128.625,41.438 129.000,41.438 135.562,48.375 140.062,55.125 143.812,63.750 143.812,64.875 144.188,65.250 144.938,69.000 145.312,69.375 145.688,73.875 146.062,74.250 146.062,84.375 145.688,84.750 145.688,87.000 145.312,87.375 145.312,89.250 144.938,89.625 144.188,93.750 143.812,94.125 143.438,96.000 142.688,97.125 142.688,97.875 141.938,99.000 141.938,99.750 140.062,103.500 139.312,104.250 138.938,105.375 136.688,108.750 133.688,112.125 133.688,112.500 129.000,117.188 128.625,117.188 125.250,120.188 121.875,122.438 115.125,125.812 114.375,125.812 113.250,126.562 112.500,126.562 111.000,127.312 107.250,128.062 106.875,128.438 102.750,128.812 102.375,129.188 99.375,129.188 98.625,129.562 89.625,129.188 89.250,128.812 87.000,128.812 85.125,128.062 83.625,128.062 82.125,127.312 81.000,127.312 80.625,126.938 78.750,126.562 69.000,121.688 64.875,118.688 63.000,116.812 62.625,116.812 56.438,110.250 51.562,102.750 50.438,100.500 50.438,99.750 49.312,97.875 48.938,96.000 48.188,94.875 48.188,93.750 47.062,90.750 46.688,87.375 46.312,87.000 46.312,84.375 45.938,84.000 45.938,74.625 46.312,74.250 46.312,71.625 46.688,71.250 46.688,69.750 47.062,69.375 47.438,66.375 47.812,66.000 49.312,60.750 50.812,58.125 50.812,57.375 51.562,55.875 52.312,55.125 53.062,53.250 54.562,51.000 58.688,46.125 58.688,45.750 64.875,39.938 70.125,36.188 73.500,34.688 74.250,33.938 75.000,33.938 76.875,32.812 77.625,32.812 78.750,32.062 79.500,32.062 82.125,30.938 83.250,30.938 85.125,30.188 86.625,30.188 87.000,29.812 88.875,29.812 89.250,29.438 92.438,29.250" stroke="#0052d9" stroke-width="1.35" opacity="1"/><polyline points="91.500,41.812 91.125,42.188 89.250,42.188 88.875,42.562 85.875,42.938 85.500,43.312 82.500,44.062 81.375,44.812 80.625,44.812 77.625,46.312 71.250,50.812 65.812,56.625 63.562,60.000 61.312,64.500 61.312,65.250 60.562,66.375 60.562,67.125 59.812,68.625 59.812,69.750 59.062,71.625 59.062,73.125 58.688,73.500 58.688,76.875 58.312,77.250 58.688,85.125 59.062,85.500 59.438,88.875 59.812,89.250 60.938,93.375 64.688,100.500 67.312,103.500 67.312,103.875 73.500,109.688 76.875,111.938 81.375,114.188 82.125,114.188 83.250,114.938 84.000,114.938 85.500,115.688 86.625,115.688 88.500,116.438 90.375,116.438 90.750,116.812 94.500,116.812 94.875,117.188 100.125,116.812 106.500,115.688 106.875,115.312 109.875,114.562 115.875,111.562 120.000,108.562 125.062,103.500 129.562,96.750 132.562,88.875 132.938,85.500 133.312,85.125 133.312,82.500 133.688,82.125 133.688,76.875 133.312,76.500 133.312,73.500 132.938,73.125 132.562,69.750 132.188,69.375 131.062,65.250 128.438,60.000 124.688,54.750 118.875,49.312 114.375,46.312 111.375,44.812 110.625,44.812 109.500,44.062 108.750,44.062 106.125,42.938 105.000,42.938 103.125,42.188 100.875,42.188 100.500,41.812 91.500,41.812" stroke="#0052d9" stroke-width="1.35" opacity="1"/><polyline points="95.812,54.375 110.438,54.375 110.062,55.875 108.188,58.500 107.438,60.375 105.562,63.000 104.812,64.875 102.938,67.500 99.938,73.125 114.000,73.312 114.188,73.875 93.188,98.250 86.438,105.750 86.438,106.125 84.750,107.812 84.562,107.625 86.438,101.625 86.812,101.250 86.812,100.500 87.188,100.125 87.188,99.000 87.562,98.625 87.562,97.875 87.938,97.500 87.938,96.750 88.312,96.375 88.312,95.625 91.312,87.375 91.688,85.125 80.812,84.750 95.812,54.375" stroke="#0052d9" stroke-width="1.35" opacity="1"/></g><text x="120" y="238" text-anchor="middle" font-size="13" fill="#344054" font-family="system-ui,sans-serif">应急响应服务</text></svg>