<svg xmlns="http://www.w3.org/2000/svg" width="240" height="272" viewBox="0 0 240 272"><g transform="translate(24 12)" fill="none" stroke-linecap="round" stroke-linejoin="round"><polyline points="0.000,22.500 10.500,12.000" stroke="#6c9dde" stroke-width="0.8" opacity="0.7"/><polyline points="0.375,27.750 15.375,12.750" stroke="#6c9dde" stroke-width="0.8" opacity="0.7"/><polyline points="2.625,31.125 19.125,14.625" stroke="#6c9dde" stroke-width="0.8" opacity="0.7"/><polyline points="5.250,34.125 21.750,17.625" stroke="#6c9dde" stroke-width="0.8" opacity="0.7"/><polyline points="9.375,35.625 27.000,18.000" stroke="#6c9dde" stroke-width="0.8" opacity="0.7"/><polyline points="14.625,36.000 32.625,18.000" stroke="#6c9dde" stroke-width="0.8" opacity="0.7"/><polyline points="26.250,30.000 38.250,18.000" stroke="#6c9dde" stroke-width="0.8" opacity="0.7"/><polyline points="31.875,30.000 43.875,18.000" stroke="#6c9dde" stroke-width="0.8" opacity="0.7"/><polyline points="6.000,61.500 7.500,60.000" stroke="#6c9dde" stroke-width="0.8" opacity="0.7"/><polyline points="37.500,30.000 49.500,18.000" stroke="#6c9dde" stroke-width="0.8" opacity="0.7"/><polyline points="6.000,67.125 13.125,60.000" stroke="#6c9dde" stroke-width="0.8" opacity="0.7"/><polyline points="43.125,30.000 55.125,18.000" stroke="#6c9dde" stroke-width="0.8" opacity="0.7"/><polyline points="6.000,72.750 18.000,60.750" stroke="#6c9dde" stroke-width="0.8" opacity="0.7"/><polyline points="48.750,30.000 60.750,18.000" stroke="#6c9dde" stroke-width="0.8" opacity="0.7"/><polyline points="6.000,78.375 18.000,66.375" stroke="#6c9dde" stroke-width="0.8" opacity="0.7"/><polyline points="54.375,30.000 66.375,18.000" stroke="#6c9dde" stroke-width="0.8" opacity="0.7"/><polyline points="6.000,84.000 18.000,72.000" stroke="#6c9dde" stroke-width="0.8" opacity="0.7"/><polyline points="60.000,30.000 72.000,18.000" stroke="#6c9dde" stroke-width="0.8" opacity="0.7"/><polyline points="6.000,89.625 18.000,77.625" stroke="#6c9dde" stroke-width="0.8" opacity="0.7"/><polyline points="65.625,30.000 77.625,18.000" stroke="#6c9dde" stroke-width="0.8" opacity="0.7"/><polyline points="6.000,95.250 18.000,83.250" stroke="#6c9dde" stroke-width="0.8" opacity="0.7"/><polyline points="71.250,30.000 83.250,18.000" stroke="#6c9dde" stroke-width="0.8" opacity="0.7"/><polyline points="6.000,100.875 18.000,88.875" stroke="#6c9dde" stroke-width="0.8" opacity="0.7"/><polyline points="30.000,76.875 34.875,72.000" stroke="#6c9dde" stroke-width="0.8" opacity="0.7"/><polyline points="76.875,30.000 88.875,18.000" stroke="#6c9dde" stroke-width="0.8" opacity="0.7"/><polyline points="6.000,106.500 18.000,94.500" stroke="#6c9dde" stroke-width="0.8" opacity="0.7"/><polyline points="30.000,82.500 40.500,72.000" stroke="#6c9dde" stroke-width="0.8" opacity="0.7"/><polyline points="82.500,30.000 94.500,18.000" stroke="#6c9dde" stroke-width="0.8" opacity="0.7"/><polyline points="6.000,112.125 18.000,100.125" stroke="#6c9dde" stroke-width="0.8" opacity="0.7"/><polyline points="30.000,88.125 46.125,72.000" stroke="#6c9dde" stroke-width="0.8" opacity="0.7"/><polyline points="88.125,30.000 100.125,18.000" stroke="#6c9dde" stroke-width="0.8" opacity="0.7"/><polyline points="6.000,117.750 18.000,105.750" stroke="#6c9dde" stroke-width="0.8" opacity="0.7"/><polyline points="30.000,93.750 51.750,72.000" stroke="#6c9dde" stroke-width="0.8" opacity="0.7"/><polyline points="93.750,30.000 105.750,18.000" stroke="#6c9dde" stroke-width="0.8" opacity="0.7"/><polyline points="6.000,123.375 18.000,111.375" stroke="#6c9dde" stroke-width="0.8" opacity="0.7"/><polyline points="30.000,99.375 42.000,87.375" stroke="#6c9dde" stroke-width="0.8" opacity="0.7"/><polyline points="45.375,84.000 57.375,72.000" stroke="#6c9dde" stroke-width="0.8" opacity="0.7"/><polyline points="99.375,30.000 111.375,18.000" stroke="#6c9dde" stroke-width="0.8" opacity="0.7"/><polyline points="6.000,129.000 18.000,117.000" stroke="#6c9dde" stroke-width="0.8" opacity="0.7"/><polyline points="30.000,105.000 42.000,93.000" stroke="#6c9dde" stroke-width="0.8" opacity="0.7"/><polyline points="51.000,84.000 63.000,72.000" stroke="#6c9dde" stroke-width="0.8" opacity="0.7"/><polyline points="105.000,30.000 117.000,18.000" stroke="#6c9dde" stroke-width="0.8" opacity="0.7"/><polyline points="6.000,134.625 18.000,122.625" stroke="#6c9dde" stroke-width="0.8" opacity="0.7"/><polyline points="30.000,110.625 42.000,98.625" stroke="#6c9dde" stroke-width="0.8" opacity="0.7"/><polyline points="56.625,84.000 66.000,74.625" stroke="#6c9dde" stroke-width="0.8" opacity="0.7"/><polyline points="110.625,30.000 122.625,18.000" stroke="#6c9dde" stroke-width="0.8" opacity="0.7"/><polyline points="6.000,140.250 18.000,128.250" stroke="#6c9dde" stroke-width="0.8" opacity="0.7"/><polyline points="30.000,116.250 42.000,104.250" stroke="#6c9dde" stroke-width="0.8" opacity="0.7"/><polyline points="62.250,84.000 66.000,80.250" stroke="#6c9dde" stroke-width="0.8" opacity="0.7"/><polyline points="116.250,30.000 128.250,18.000" stroke="#6c9dde" stroke-width="0.8" opacity="0.7"/><polyline points="6.000,145.875 18.000,133.875" stroke="#6c9dde" stroke-width="0.8" opacity="0.7"/><polyline points="31.875,120.000 43.875,108.000" stroke="#6c9dde" stroke-width="0.8" opacity="0.7"/><polyline points="78.000,73.875 79.875,72.000" stroke="#6c9dde" stroke-width="0.8" opacity="0.7"/><polyline points="121.875,30.000 133.875,18.000" stroke="#6c9dde" stroke-width="0.8" opacity="0.7"/><polyline points="6.000,151.500 18.000,139.500" stroke="#6c9dde" stroke-width="0.8" opacity="0.7"/><polyline points="37.500,120.000 49.500,108.000" stroke="#6c9dde" stroke-width="0.8" opacity="0.7"/><polyline points="78.000,79.500 85.500,72.000" stroke="#6c9dde" stroke-width="0.8" opacity="0.7"/><polyline points="127.500,30.000 139.500,18.000" stroke="#6c9dde" stroke-width="0.8" opacity="0.7"/><polyline points="6.000,157.125 18.000,145.125" stroke="#6c9dde" stroke-width="0.8" opacity="0.7"/><polyline points="43.125,120.000 55.125,108.000" stroke="#6c9dde" stroke-width="0.8" opacity="0.7"/><polyline points="78.000,85.125 91.125,72.000" stroke="#6c9dde" stroke-width="0.8" opacity="0.7"/><polyline points="133.125,30.000 145.125,18.000" stroke="#6c9dde" stroke-width="0.8" opacity="0.7"/><polyline points="6.000,162.750 18.000,150.750" stroke="#6c9dde" stroke-width="0.8" opacity="0.7"/><polyline points="48.750,120.000 60.750,108.000" stroke="#6c9dde" stroke-width="0.8" opacity="0.7"/><polyline points="78.000,90.750 96.750,72.000" stroke="#6c9dde" stroke-width="0.8" opacity="0.7"/><polyline points="138.750,30.000 150.750,18.000" stroke="#6c9dde" stroke-width="0.8" opacity="0.7"/><polyline points="6.000,168.375 18.000,156.375" stroke="#6c9dde" stroke-width="0.8" opacity="0.7"/><polyline points="54.375,120.000 66.000,108.375" stroke="#6c9dde" stroke-width="0.8" opacity="0.7"/><polyline points="78.000,96.375 102.375,72.000" stroke="#6c9dde" stroke-width="0.8" opacity="0.7"/><polyline points="144.375,30.000 156.375,18.000" stroke="#6c9dde" stroke-width="0.8" opacity="0.7"/><polyline points="6.000,174.000 18.000,162.000" stroke="#6c9dde" stroke-width="0.8" opacity="0.7"/><polyline points="60.000,120.000 66.000,114.000" stroke="#6c9dde" stroke-width="0.8" opacity="0.7"/><polyline points="78.000,102.000 90.000,90.000" stroke="#6c9dde" stroke-width="0.8" opacity="0.7"/><polyline points="96.000,84.000 108.000,72.000" stroke="#6c9dde" stroke-width="0.8" opacity="0.7"/><polyline points="150.000,30.000 162.000,18.000" stroke="#6c9dde" stroke-width="0.8" opacity="0.7"/><polyline points="11.625,174.000 23.625,162.000" stroke="#6c9dde" stroke-width="0.8" opacity="0.7"/><polyline points="78.000,107.625 90.000,95.625" stroke="#6c9dde" stroke-width="0.8" opacity="0.7"/><polyline points="101.625,84.000 113.625,72.000" stroke="#6c9dde" stroke-width="0.8" opacity="0.7"/><polyline points="155.625,30.000 167.625,18.000" stroke="#6c9dde" stroke-width="0.8" opacity="0.7"/><polyline points="17.250,174.000 29.250,162.000" stroke="#6c9dde" stroke-width="0.8" opacity="0.7"/><polyline points="78.000,113.250 90.000,101.250" stroke="#6c9dde" stroke-width="0.8" opacity="0.7"/><polyline points="107.250,84.000 114.000,77.250" stroke="#6c9dde" stroke-width="0.8" opacity="0.7"/><polyline points="161.250,30.000 173.250,18.000" stroke="#6c9dde" stroke-width="0.8" opacity="0.7"/><polyline points="22.875,174.000 34.875,162.000" stroke="#6c9dde" stroke-width="0.8" opacity="0.7"/><polyline points="78.000,118.875 90.000,106.875" stroke="#6c9dde" stroke-width="0.8" opacity="0.7"/><polyline points="112.875,84.000 114.000,82.875" stroke="#6c9dde" stroke-width="0.8" opacity="0.7"/><polyline points="166.875,30.000 178.875,18.000" stroke="#6c9dde" stroke-width="0.8" opacity="0.7"/><polyline points="28.500,174.000 40.500,162.000" stroke="#6c9dde" stroke-width="0.8" opacity="0.7"/><polyline points="82.500,120.000 94.500,108.000" stroke="#6c9dde" stroke-width="0.8" opacity="0.7"/><polyline points="126.000,76.500 130.500,72.000" stroke="#6c9dde" stroke-width="0.8" opacity="0.7"/><polyline points="172.500,30.000 184.500,18.000" stroke="#6c9dde" stroke-width="0.8" opacity="0.7"/><polyline points="34.125,174.000 46.125,162.000" stroke="#6c9dde" stroke-width="0.8" opacity="0.7"/><polyline points="88.125,120.000 100.125,108.000" stroke="#6c9dde" stroke-width="0.8" opacity="0.7"/><polyline points="126.000,82.125 136.125,72.000" stroke="#6c9dde" stroke-width="0.8" opacity="0.7"/><polyline points="174.000,34.125 186.000,22.125" stroke="#6c9dde" stroke-width="0.8" opacity="0.7"/><polyline points="39.750,174.000 51.750,162.000" stroke="#6c9dde" stroke-width="0.8" opacity="0.7"/><polyline points="93.750,120.000 105.750,108.000" stroke="#6c9dde" stroke-width="0.8" opacity="0.7"/><polyline points="126.000,87.750 141.750,72.000" stroke="#6c9dde" stroke-width="0.8" opacity="0.7"/><polyline points="174.000,39.750 186.000,27.750" stroke="#6c9dde" stroke-width="0.8" opacity="0.7"/><polyline points="45.375,174.000 57.375,162.000" stroke="#6c9dde" stroke-width="0.8" opacity="0.7"/><polyline points="99.375,120.000 111.375,108.000" stroke="#6c9dde" stroke-width="0.8" opacity="0.7"/><polyline points="126.000,93.375 147.375,72.000" stroke="#6c9dde" stroke-width="0.8" opacity="0.7"/><polyline points="174.000,45.375 186.000,33.375" stroke="#6c9dde" stroke-width="0.8" opacity="0.7"/><polyline points="51.000,174.000 63.000,162.000" stroke="#6c9dde" stroke-width="0.8" opacity="0.7"/><polyline points="105.000,120.000 114.000,111.000" stroke="#6c9dde" stroke-width="0.8" opacity="0.7"/><polyline points="126.000,99.000 138.000,87.000" stroke="#6c9dde" stroke-width="0.8" opacity="0.7"/><polyline points="141.000,84.000 153.000,72.000" stroke="#6c9dde" stroke-width="0.8" opacity="0.7"/><polyline points="174.000,51.000 186.000,39.000" stroke="#6c9dde" stroke-width="0.8" opacity="0.7"/><polyline points="56.625,174.000 68.625,162.000" stroke="#6c9dde" stroke-width="0.8" opacity="0.7"/><polyline points="110.625,120.000 114.000,116.625" stroke="#6c9dde" stroke-width="0.8" opacity="0.7"/><polyline points="126.000,104.625 138.000,92.625" stroke="#6c9dde" stroke-width="0.8" opacity="0.7"/><polyline points="146.625,84.000 158.625,72.000" stroke="#6c9dde" stroke-width="0.8" opacity="0.7"/><polyline points="174.000,56.625 186.000,44.625" stroke="#6c9dde" stroke-width="0.8" opacity="0.7"/><polyline points="62.250,174.000 74.250,162.000" stroke="#6c9dde" stroke-width="0.8" opacity="0.7"/><polyline points="126.000,110.250 138.000,98.250" stroke="#6c9dde" stroke-width="0.8" opacity="0.7"/><polyline points="152.250,84.000 162.000,74.250" stroke="#6c9dde" stroke-width="0.8" opacity="0.7"/><polyline points="174.000,62.250 186.000,50.250" stroke="#6c9dde" stroke-width="0.8" opacity="0.7"/><polyline points="67.875,174.000 79.875,162.000" stroke="#6c9dde" stroke-width="0.8" opacity="0.7"/><polyline points="126.000,115.875 138.000,103.875" stroke="#6c9dde" stroke-width="0.8" opacity="0.7"/><polyline points="157.875,84.000 162.000,79.875" stroke="#6c9dde" stroke-width="0.8" opacity="0.7"/><polyline points="174.000,67.875 186.000,55.875" stroke="#6c9dde" stroke-width="0.8" opacity="0.7"/><polyline points="73.500,174.000 85.500,162.000" stroke="#6c9dde" stroke-width="0.8" opacity="0.7"/><polyline points="127.500,120.000 139.500,108.000" stroke="#6c9dde" stroke-width="0.8" opacity="0.7"/><polyline points="174.000,73.500 186.000,61.500" stroke="#6c9dde" stroke-width="0.8" opacity="0.7"/><polyline points="79.125,174.000 91.125,162.000" stroke="#6c9dde" stroke-width="0.8" opacity="0.7"/><polyline points="133.125,120.000 145.125,108.000" stroke="#6c9dde" stroke-width="0.8" opacity="0.7"/><polyline points="174.000,79.125 186.000,67.125" stroke="#6c9dde" stroke-width="0.8" opacity="0.7"/><polyline points="84.750,174.000 96.750,162.000" stroke="#6c9dde" stroke-width="0.8" opacity="0.7"/><polyline points="138.750,120.000 150.750,108.000" stroke="#6c9dde" stroke-width="0.8" opacity="0.7"/><polyline points="174.000,84.750 186.000,72.750" stroke="#6c9dde" stroke-width="0.8" opacity="0.7"/><polyline points="90.375,174.000 102.375,162.000" stroke="#6c9dde" stroke-width="0.8" opacity="0.7"/><polyline points="144.375,120.000 156.375,108.000" stroke="#6c9dde" stroke-width="0.8" opacity="0.7"/><polyline points="174.000,90.375 186.000,78.375" stroke="#6c9dde" stroke-width="0.8" opacity="0.7"/><polyline points="96.000,174.000 108.000,162.000" stroke="#6c9dde" stroke-width="0.8" opacity="0.7"/><polyline points="150.000,120.000 162.000,108.000" stroke="#6c9dde" stroke-width="0.8" opacity="0.7"/><polyline points="174.000,96.000 186.000,84.000" stroke="#6c9dde" stroke-width="0.8" opacity="0.7"/><polyline points="101.625,174.000 113.625,162.000" stroke="#6c9dde" stroke-width="0.8" opacity="0.7"/><polyline points="155.625,120.000 162.000,113.625" stroke="#6c9dde" stroke-width="0.8" opacity="0.7"/><polyline points="174.000,101.625 186.000,89.625" stroke="#6c9dde" stroke-width="0.8" opacity="0.7"/><polyline points="107.250,174.000 119.250,162.000" stroke="#6c9dde" stroke-width="0.8" opacity="0.7"/><polyline points="174.000,107.250 186.000,95.250" stroke="#6c9dde" stroke-width="0.8" opacity="0.7"/><polyline points="112.875,174.000 124.875,162.000" stroke="#6c9dde" stroke-width="0.8" opacity="0.7"/><polyline points="174.000,112.875 186.000,100.875" stroke="#6c9dde" stroke-width="0.8" opacity="0.7"/><polyline points="118.500,174.000 130.500,162.000" stroke="#6c9dde" stroke-width="0.8" opacity="0.7"/><polyline points="174.000,118.500 186.000,106.500" stroke="#6c9dde" stroke-width="0.8" opacity="0.7"/><polyline points="124.125,174.000 136.125,162.000" stroke="#6c9dde" stroke-width="0.8" opacity="0.7"/><polyline points="174.000,124.125 186.000,112.125" stroke="#6c9dde" stroke-width="0.8" opacity="0.7"/><polyline points="129.750,174.000 141.750,162.000" stroke="#6c9dde" stroke-width="0.8" opacity="0.7"/><polyline points="177.750,126.000 186.000,117.750" stroke="#6c9dde" stroke-width="0.8" opacity="0.7"/><polyline points="135.375,174.000 147.375,162.000" stroke="#6c9dde" stroke-width="0.8" opacity="0.7"/><polyline points="183.375,126.000 186.000,123.375" stroke="#6c9dde" stroke-width="0.8" opacity="0.7"/><polyline points="141.000,174.000 153.000,162.000" stroke="#6c9dde" stroke-width="0.8" opacity="0.7"/><polyline points="146.625,174.000 158.625,162.000" stroke="#6c9dde" stroke-width="0.8" opacity="0.7"/><polyline points="152.250,174.000 169.500,156.750" stroke="#6c9dde" stroke-width="0.8" opacity="0.7"/><polyline points="157.875,174.000 175.875,156.000" stroke="#6c9dde" stroke-width="0.8" opacity="0.7"/><polyline points="163.500,174.000 180.000,157.500" stroke="#6c9dde" stroke-width="0.8" opacity="0.7"/><polyline points="166.125,177.000 183.000,160.125" stroke="#6c9dde" stroke-width="0.8" opacity="0.7"/><polyline points="169.500,179.250 185.250,163.500" stroke="#6c9dde" stroke-width="0.8" opacity="0.7"/><polyline points="174.375,180.000 186.000,168.375" stroke="#6c9dde" stroke-width="0.8" opacity="0.7"/><polyline points="10.312,12.000 13.500,11.812 13.875,12.188 16.500,12.562 19.125,14.062 22.500,17.812 186.000,17.812 186.188,126.000 174.000,126.188 173.812,122.250 173.625,30.188 22.500,30.188 21.562,31.875 19.875,33.562 16.875,35.438 16.125,35.438 14.625,36.188 9.375,36.188 9.000,35.812 7.125,35.438 4.125,33.562 2.438,31.875 0.938,29.625 -0.188,26.625 -0.188,21.750 1.312,18.000 4.875,14.062 7.500,12.562 10.312,12.000" stroke="#0052d9" stroke-width="1.35" opacity="1"/><polyline points="5.812,60.000 18.188,60.000 18.375,161.812 163.500,161.812 165.375,159.188 165.750,159.188 167.250,157.688 169.500,156.562 171.750,156.188 172.125,155.812 175.875,155.812 176.250,156.188 178.500,156.562 180.750,157.688 182.250,159.188 182.625,159.188 184.312,161.250 185.812,164.250 185.812,165.375 186.188,165.750 186.188,170.250 185.812,170.625 185.812,171.750 185.062,172.875 184.312,174.750 180.750,178.312 177.750,179.812 176.625,179.812 176.250,180.188 171.750,180.188 171.375,179.812 170.250,179.812 167.250,178.312 165.750,176.812 165.375,176.812 163.500,174.188 6.000,174.188 5.812,60.000" stroke="#0052d9" stroke-width="1.35" opacity="1"/><polyline points="29.812,72.000 66.188,72.000 66.000,84.188 42.188,84.375 42.188,107.625 54.375,107.812 66.188,108.000 66.000,120.188 29.812,120.000 29.812,72.000" stroke="#0052d9" stroke-width="1.35" opacity="1"/><polyline points="77.812,72.000 114.188,72.000 114.000,84.188 90.188,84.375 90.188,107.625 102.375,107.812 114.188,108.000 114.000,120.188 77.812,120.000 77.812,72.000" stroke="#0052d9" stroke-width="1.35" opacity="1"/><polyline points="125.812,72.000 162.188,72.000 162.000,84.188 138.188,84.375 138.188,107.625 150.375,107.812 162.188,108.000 162.000,120.188 125.812,120.000 125.812,72.000" stroke="#0052d9" stroke-width="1.35" opacity="1"/></g><text x="120" y="238" text-anchor="middle" font-size="13" fill="#344054" font-family="system-ui,sans-serif">云联络中心</text></svg>