<svg xmlns="http://www.w3.org/2000/svg" width="240" height="272" viewBox="0 0 240 272"><g transform="translate(24 12)" fill="none" stroke-linecap="round" stroke-linejoin="round"><polyline points="19.168,5.784 23.180,1.360" stroke="#6c9dde" stroke-width="0.737515664050807" opacity="0.57"/><polyline points="19.680,10.924 28.575,1.244" stroke="#6c9dde" stroke-width="0.8267036204598274" opacity="0.69"/><polyline points="19.854,15.691 28.127,8.863 33.578,1.133" stroke="#6c9dde" stroke-width="0.9242957596714622" opacity="0.57"/><polyline points="19.593,23.383 25.820,17.253 31.628,11.378 36.849,6.031 41.642,1.125" stroke="#6c9dde" stroke-width="0.7662207479048959" opacity="0.69"/><polyline points="19.256,28.872 26.688,22.519 31.976,17.116" stroke="#6c9dde" stroke-width="0.9353123226315171" opacity="0.58"/><polyline points="36.167,13.020 42.979,6.576 47.386,1.269" stroke="#6c9dde" stroke-width="0.9353123226315171" opacity="0.58"/><polyline points="19.030,34.723 26.424,28.645 31.638,23.019" stroke="#6c9dde" stroke-width="0.7002893568179334" opacity="0.63"/><polyline points="42.222,13.100 49.211,7.019 53.499,1.453" stroke="#6c9dde" stroke-width="0.7002893568179334" opacity="0.63"/><polyline points="19.046,42.399 24.530,35.671 31.049,30.751" stroke="#6c9dde" stroke-width="0.9349091327063404" opacity="0.58"/><polyline points="50.138,13.406 55.589,6.617 61.494,1.469" stroke="#6c9dde" stroke-width="0.9349091327063404" opacity="0.58"/><polyline points="19.090,47.516 25.731,40.998 30.815,35.896" stroke="#6c9dde" stroke-width="0.7043677012838427" opacity="0.6"/><polyline points="55.395,13.613 62.082,6.841 66.806,1.215" stroke="#6c9dde" stroke-width="0.7043677012838427" opacity="0.6"/><polyline points="18.760,55.558 23.708,49.471 30.763,43.968" stroke="#6c9dde" stroke-width="0.9431219164830481" opacity="0.6"/><polyline points="63.624,13.637 68.344,6.851 75.122,0.416" stroke="#6c9dde" stroke-width="0.9431219164830481" opacity="0.6"/><polyline points="18.039,61.775 23.327,55.773 30.702,50.196" stroke="#6c9dde" stroke-width="0.700416790354912" opacity="0.63"/><polyline points="69.955,13.268 74.678,6.287 81.522,-0.322" stroke="#6c9dde" stroke-width="0.700416790354912" opacity="0.63"/><polyline points="17.338,66.533 24.096,59.761 30.448,54.954" stroke="#6c9dde" stroke-width="0.9075065166596998" opacity="0.68"/><polyline points="74.781,12.790 80.836,4.959 86.399,-0.795" stroke="#6c9dde" stroke-width="0.9075065166596998" opacity="0.68"/><polyline points="16.372,74.594 21.678,69.117 29.527,63.001" stroke="#6c9dde" stroke-width="0.7039324973800056" opacity="0.6"/><polyline points="82.919,11.862 87.739,5.502 94.622,-1.211" stroke="#6c9dde" stroke-width="0.7039324973800056" opacity="0.6"/><polyline points="16.149,81.199 21.316,76.093 28.623,69.580" stroke="#6c9dde" stroke-width="0.943129424854382" opacity="0.64"/><polyline points="89.552,11.285 94.709,5.616 101.321,-1.207" stroke="#6c9dde" stroke-width="0.943129424854382" opacity="0.64"/><polyline points="16.305,85.976 21.042,79.560 28.159,74.332" stroke="#6c9dde" stroke-width="0.7873310066064821" opacity="0.55"/><polyline points="94.329,11.069 99.368,4.310 106.143,-1.119" stroke="#6c9dde" stroke-width="0.7873310066064821" opacity="0.55"/><polyline points="16.765,93.707 21.687,88.660 28.037,82.007" stroke="#6c9dde" stroke-width="0.9087786469804224" opacity="0.68"/><polyline points="102.025,11.022 107.411,5.811 113.905,-1.066" stroke="#6c9dde" stroke-width="0.9087786469804224" opacity="0.68"/><polyline points="16.993,101.087 23.611,95.985 28.509,89.321" stroke="#6c9dde" stroke-width="0.7202965928566211" opacity="0.58"/><polyline points="109.332,11.073 116.173,5.760 121.269,-1.251" stroke="#6c9dde" stroke-width="0.7202965928566211" opacity="0.58"/><polyline points="16.933,108.487 24.310,102.260 29.038,96.642" stroke="#6c9dde" stroke-width="0.9436754825858379" opacity="0.64"/><polyline points="89.047,37.306 96.240,30.910 101.348,25.194" stroke="#6c9dde" stroke-width="0.9436754825858379" opacity="0.64"/><polyline points="116.624,10.944 123.965,4.413 128.608,-1.537" stroke="#6c9dde" stroke-width="0.9436754825858379" opacity="0.64"/><polyline points="16.965,115.535 23.631,108.626 29.239,103.604" stroke="#6c9dde" stroke-width="0.7033218828386953" opacity="0.6"/><polyline points="71.502,63.490 77.949,56.636 83.990,49.939 89.610,43.677 95.030,37.913 100.563,32.483" stroke="#6c9dde" stroke-width="0.7033218828386953" opacity="0.6"/><polyline points="123.538,10.617 130.248,3.478 135.559,-1.617" stroke="#6c9dde" stroke-width="0.7033218828386953" opacity="0.6"/><polyline points="17.581,123.721 21.996,117.576 29.244,111.679" stroke="#6c9dde" stroke-width="0.941660266969286" opacity="0.59"/><polyline points="51.630,91.069 56.123,86.196 60.836,81.042 65.956,75.559 71.500,69.800 77.327,63.890 83.221,57.977 89.015,52.169 94.681,46.502 100.322,40.932" stroke="#6c9dde" stroke-width="0.941660266969286" opacity="0.59"/><polyline points="131.536,10.259 136.451,4.269 143.587,-1.210" stroke="#6c9dde" stroke-width="0.941660266969286" opacity="0.59"/><polyline points="18.176,128.197 23.949,121.123 29.353,116.091" stroke="#6c9dde" stroke-width="0.7322076487074054" opacity="0.57"/><polyline points="44.193,102.614 49.335,97.865 54.235,93.098 58.993,88.188 63.789,83.056 68.789,77.697 74.058,72.178 79.526,66.618 85.024,61.134 90.374,55.801 95.486,50.625 100.404,45.544" stroke="#6c9dde" stroke-width="0.7322076487074054" opacity="0.57"/><polyline points="135.896,10.223 142.407,3.594 147.958,-0.773" stroke="#6c9dde" stroke-width="0.7322076487074054" opacity="0.57"/><polyline points="19.308,136.426 23.435,130.361 30.040,124.194" stroke="#6c9dde" stroke-width="0.9488485803388996" opacity="0.63"/><polyline points="52.672,103.541 56.706,99.155 61.025,94.496 65.939,89.490 71.408,84.176" stroke="#6c9dde" stroke-width="0.9488485803388996" opacity="0.63"/><polyline points="87.985,66.484 93.112,60.315 100.511,54.002" stroke="#6c9dde" stroke-width="0.9488485803388996" opacity="0.63"/><polyline points="103.475,50.901 107.808,46.206" stroke="#6c9dde" stroke-width="0.9488485803388996" opacity="0.63"/><polyline points="143.890,10.609 148.815,5.452 155.961,0.165" stroke="#6c9dde" stroke-width="0.9488485803388996" opacity="0.63"/><polyline points="19.825,143.555 24.851,138.132 30.995,131.209" stroke="#6c9dde" stroke-width="0.7001405583009092" opacity="0.62"/><polyline points="43.369,118.583 50.874,112.111" stroke="#6c9dde" stroke-width="0.7001405583009092" opacity="0.62"/><polyline points="60.007,104.189 65.067,99.331 71.258,92.461" stroke="#6c9dde" stroke-width="0.7001405583009092" opacity="0.62"/><polyline points="87.721,73.747 93.242,68.312 100.305,61.308" stroke="#6c9dde" stroke-width="0.7001405583009092" opacity="0.62"/><polyline points="106.100,55.469 114.497,46.270" stroke="#6c9dde" stroke-width="0.7001405583009092" opacity="0.62"/><polyline points="150.798,11.323 156.242,6.950 162.867,0.797" stroke="#6c9dde" stroke-width="0.7001405583009092" opacity="0.62"/><polyline points="19.792,149.199 24.722,143.205 31.661,136.759" stroke="#6c9dde" stroke-width="0.9253350770541681" opacity="0.66"/><polyline points="45.584,122.432 49.622,118.051 56.291,113.052" stroke="#6c9dde" stroke-width="0.9253350770541681" opacity="0.66"/><polyline points="65.803,104.425 70.380,98.734 77.032,92.175" stroke="#6c9dde" stroke-width="0.9253350770541681" opacity="0.66"/><polyline points="87.910,79.472 92.618,73.542 100.040,67.075" stroke="#6c9dde" stroke-width="0.9253350770541681" opacity="0.66"/><polyline points="107.908,59.259 116.512,49.958" stroke="#6c9dde" stroke-width="0.9253350770541681" opacity="0.66"/><polyline points="156.257,11.943 161.218,6.917 168.317,1.041" stroke="#6c9dde" stroke-width="0.9253350770541681" opacity="0.66"/><polyline points="19.429,155.988 24.911,150.334 32.010,143.435" stroke="#6c9dde" stroke-width="0.73107479935727" opacity="0.57"/><polyline points="51.817,123.853 56.124,119.841 62.482,114.249" stroke="#6c9dde" stroke-width="0.73107479935727" opacity="0.57"/><polyline points="72.763,104.367 77.627,98.830 83.972,91.818" stroke="#6c9dde" stroke-width="0.73107479935727" opacity="0.57"/><polyline points="88.632,86.328 93.203,80.835 99.929,73.992" stroke="#6c9dde" stroke-width="0.73107479935727" opacity="0.57"/><polyline points="110.028,63.779 118.876,54.356" stroke="#6c9dde" stroke-width="0.73107479935727" opacity="0.57"/><polyline points="162.423,12.861 167.685,7.970 174.492,1.440" stroke="#6c9dde" stroke-width="0.73107479935727" opacity="0.57"/><polyline points="19.114,162.038 24.318,156.105 31.839,149.384" stroke="#6c9dde" stroke-width="0.8769487077964276" opacity="0.69"/><polyline points="57.617,124.837 61.714,120.414 68.276,114.787" stroke="#6c9dde" stroke-width="0.8769487077964276" opacity="0.69"/><polyline points="78.949,104.125 83.755,98.382 88.710,92.487 94.183,86.398 100.253,80.136" stroke="#6c9dde" stroke-width="0.8769487077964276" opacity="0.69"/><polyline points="112.199,67.496 121.153,57.968" stroke="#6c9dde" stroke-width="0.8769487077964276" opacity="0.69"/><polyline points="161.809,18.708 167.159,13.596 174.414,7.319" stroke="#6c9dde" stroke-width="0.8769487077964276" opacity="0.69"/><polyline points="19.006,169.240 24.705,163.754 31.311,156.467" stroke="#6c9dde" stroke-width="0.763215872928857" opacity="0.55"/><polyline points="64.201,126.051 69.270,121.660 75.217,115.065" stroke="#6c9dde" stroke-width="0.763215872928857" opacity="0.55"/><polyline points="86.293,103.850 91.212,99.178 96.117,93.722 101.137,87.425" stroke="#6c9dde" stroke-width="0.763215872928857" opacity="0.55"/><polyline points="114.480,72.330 123.755,62.292" stroke="#6c9dde" stroke-width="0.763215872928857" opacity="0.55"/><polyline points="161.008,25.654 167.258,21.049 174.037,14.289" stroke="#6c9dde" stroke-width="0.763215872928857" opacity="0.55"/><polyline points="19.086,176.461 25.596,170.776 30.875,163.571" stroke="#6c9dde" stroke-width="0.8961369647651198" opacity="0.68"/><polyline points="71.109,126.584 77.377,121.601 82.524,114.833" stroke="#6c9dde" stroke-width="0.8961369647651198" opacity="0.68"/><polyline points="93.631,103.770 102.155,94.704" stroke="#6c9dde" stroke-width="0.8961369647651198" opacity="0.68"/><polyline points="117.378,76.712 125.987,67.030" stroke="#6c9dde" stroke-width="0.8961369647651198" opacity="0.68"/><polyline points="160.607,32.604 167.550,27.851 173.349,21.250" stroke="#6c9dde" stroke-width="0.8961369647651198" opacity="0.68"/><polyline points="18.975,183.318 26.023,177.241 30.756,170.320" stroke="#6c9dde" stroke-width="0.7624768059947836" opacity="0.56"/><polyline points="77.608,126.868 84.277,121.461 89.045,115.094" stroke="#6c9dde" stroke-width="0.7624768059947836" opacity="0.56"/><polyline points="100.572,103.851 102.786,101.588" stroke="#6c9dde" stroke-width="0.7624768059947836" opacity="0.56"/><polyline points="109.789,93.855 111.798,91.458" stroke="#6c9dde" stroke-width="0.7624768059947836" opacity="0.56"/><polyline points="120.132,81.096 128.354,71.394" stroke="#6c9dde" stroke-width="0.7624768059947836" opacity="0.56"/><polyline points="160.839,39.194 167.696,34.089 172.763,27.837" stroke="#6c9dde" stroke-width="0.7624768059947836" opacity="0.56"/><polyline points="18.619,188.279 24.421,182.622 30.764,175.206" stroke="#6c9dde" stroke-width="0.7754285026201309" opacity="0.69"/><polyline points="82.540,126.761 87.716,121.854 94.020,115.126" stroke="#6c9dde" stroke-width="0.7754285026201309" opacity="0.69"/><polyline points="110.317,98.847 116.823,91.133" stroke="#6c9dde" stroke-width="0.7754285026201309" opacity="0.69"/><polyline points="122.459,83.967 130.430,74.279" stroke="#6c9dde" stroke-width="0.7754285026201309" opacity="0.69"/><polyline points="161.295,43.957 166.382,39.296 172.615,32.591" stroke="#6c9dde" stroke-width="0.7754285026201309" opacity="0.69"/><polyline points="21.596,190.659 27.051,185.072 33.652,178.078" stroke="#6c9dde" stroke-width="0.9171884475126653" opacity="0.57"/><polyline points="88.237,127.084 93.299,121.970 100.127,115.259" stroke="#6c9dde" stroke-width="0.9171884475126653" opacity="0.57"/><polyline points="111.729,103.798 116.807,98.095 123.002,90.537" stroke="#6c9dde" stroke-width="0.9171884475126653" opacity="0.57"/><polyline points="124.994,87.979 133.068,77.917" stroke="#6c9dde" stroke-width="0.9171884475126653" opacity="0.57"/><polyline points="161.934,49.827 166.653,45.014 172.869,38.440" stroke="#6c9dde" stroke-width="0.9171884475126653" opacity="0.57"/><polyline points="27.048,190.154 32.036,184.195 39.105,178.024" stroke="#6c9dde" stroke-width="0.7014004678284835" opacity="0.63"/><polyline points="93.890,127.171 98.516,121.598 105.837,115.359" stroke="#6c9dde" stroke-width="0.7014004678284835" opacity="0.63"/><polyline points="117.483,103.467 122.743,96.402 128.638,89.017 135.448,81.606" stroke="#6c9dde" stroke-width="0.7014004678284835" opacity="0.63"/><polyline points="162.381,55.338 166.830,49.975 173.453,43.922" stroke="#6c9dde" stroke-width="0.7014004678284835" opacity="0.63"/><polyline points="34.324,189.689 40.417,184.848 46.372,178.392" stroke="#6c9dde" stroke-width="0.9397276809212715" opacity="0.59"/><polyline points="79.661,148.970 84.024,144.902" stroke="#6c9dde" stroke-width="0.9397276809212715" opacity="0.59"/><polyline points="101.398,127.423 107.365,122.275 113.816,114.823" stroke="#6c9dde" stroke-width="0.9397276809212715" opacity="0.59"/><polyline points="125.134,102.708 132.135,95.399 138.827,86.429" stroke="#6c9dde" stroke-width="0.9397276809212715" opacity="0.59"/><polyline points="162.612,62.699 168.542,58.017 174.337,51.232" stroke="#6c9dde" stroke-width="0.9397276809212715" opacity="0.59"/><polyline points="42.341,189.727 49.690,184.013 54.366,179.136" stroke="#6c9dde" stroke-width="0.7581627612484136" opacity="0.68"/><polyline points="79.046,156.683 86.876,150.503 92.122,145.043" stroke="#6c9dde" stroke-width="0.7581627612484136" opacity="0.68"/><polyline points="109.981,127.176 117.283,120.301 122.523,113.728" stroke="#6c9dde" stroke-width="0.7581627612484136" opacity="0.68"/><polyline points="133.519,101.786 142.215,92.062" stroke="#6c9dde" stroke-width="0.7581627612484136" opacity="0.68"/><polyline points="162.714,70.815 170.001,64.770 174.903,59.277" stroke="#6c9dde" stroke-width="0.7581627612484136" opacity="0.68"/><polyline points="49.645,190.221 55.827,183.995 61.640,179.737" stroke="#6c9dde" stroke-width="0.8626252102439428" opacity="0.55"/><polyline points="86.336,156.758 93.036,150.057 99.458,145.403" stroke="#6c9dde" stroke-width="0.8626252102439428" opacity="0.55"/><polyline points="117.787,126.440 124.193,118.285 130.845,112.007" stroke="#6c9dde" stroke-width="0.8626252102439428" opacity="0.55"/><polyline points="141.111,101.259 145.232,96.981" stroke="#6c9dde" stroke-width="0.8626252102439428" opacity="0.55"/><polyline points="163.144,78.214 168.975,71.441 175.013,66.597" stroke="#6c9dde" stroke-width="0.8626252102439428" opacity="0.55"/><polyline points="56.236,190.785 61.831,184.569 68.195,180.020" stroke="#6c9dde" stroke-width="0.7777846655835368" opacity="0.69"/><polyline points="92.886,157.037 99.035,150.533 106.042,145.721" stroke="#6c9dde" stroke-width="0.7777846655835368" opacity="0.69"/><polyline points="124.828,125.348 130.919,116.957 138.396,110.561" stroke="#6c9dde" stroke-width="0.7777846655835368" opacity="0.69"/><polyline points="163.871,84.890 168.829,78.165 175.135,73.192" stroke="#6c9dde" stroke-width="0.7777846655835368" opacity="0.69"/><polyline points="61.375,191.134 68.183,184.848 73.301,180.092" stroke="#6c9dde" stroke-width="0.9390406990250524" opacity="0.59"/><polyline points="97.976,157.368 105.363,150.892 111.152,145.800" stroke="#6c9dde" stroke-width="0.9390406990250524" opacity="0.59"/><polyline points="130.373,124.310 137.745,116.127 144.034,109.951" stroke="#6c9dde" stroke-width="0.9390406990250524" opacity="0.59"/><polyline points="164.458,90.095 170.599,83.407 175.436,78.328" stroke="#6c9dde" stroke-width="0.9390406990250524" opacity="0.59"/><polyline points="68.370,191.377 74.144,184.795 80.244,180.152" stroke="#6c9dde" stroke-width="0.7159237517009496" opacity="0.66"/><polyline points="104.880,157.785 114.865,148.744" stroke="#6c9dde" stroke-width="0.7159237517009496" opacity="0.66"/><polyline points="138.124,122.816 148.278,112.610" stroke="#6c9dde" stroke-width="0.7159237517009496" opacity="0.66"/><polyline points="164.888,97.176 170.318,90.291 176.115,85.309" stroke="#6c9dde" stroke-width="0.7159237517009496" opacity="0.66"/><polyline points="73.910,191.429 80.464,184.901 85.738,180.319" stroke="#6c9dde" stroke-width="0.9495869476191895" opacity="0.63"/><polyline points="110.330,157.911 114.103,154.442" stroke="#6c9dde" stroke-width="0.9495869476191895" opacity="0.63"/><polyline points="144.016,122.180 148.639,117.575" stroke="#6c9dde" stroke-width="0.9495869476191895" opacity="0.63"/><polyline points="164.760,102.781 171.393,95.903 176.638,90.830" stroke="#6c9dde" stroke-width="0.9495869476191895" opacity="0.63"/><polyline points="82.065,191.542 86.833,186.118 93.820,180.866" stroke="#6c9dde" stroke-width="0.716342333264516" opacity="0.66"/><polyline points="163.999,111.025 169.290,104.981 176.856,98.944" stroke="#6c9dde" stroke-width="0.716342333264516" opacity="0.66"/><polyline points="87.275,191.778 92.642,185.660 98.980,181.325" stroke="#6c9dde" stroke-width="0.946282235481292" opacity="0.64"/><polyline points="163.456,116.286 169.354,109.345 176.532,104.120" stroke="#6c9dde" stroke-width="0.946282235481292" opacity="0.64"/><polyline points="95.493,192.452 100.685,188.070 107.117,181.897" stroke="#6c9dde" stroke-width="0.707746677371479" opacity="0.65"/><polyline points="162.957,124.577 168.355,119.226 175.584,112.273" stroke="#6c9dde" stroke-width="0.707746677371479" opacity="0.65"/><polyline points="99.993,192.888 105.108,186.844 111.571,182.000" stroke="#6c9dde" stroke-width="0.9166578764952884" opacity="0.67"/><polyline points="162.880,129.110 168.024,122.166 175.085,116.730" stroke="#6c9dde" stroke-width="0.9166578764952884" opacity="0.67"/><polyline points="107.519,193.460 112.233,188.150 119.019,181.760" stroke="#6c9dde" stroke-width="0.7146660902649543" opacity="0.58"/><polyline points="162.785,136.684 167.509,130.784 174.597,124.178" stroke="#6c9dde" stroke-width="0.7146660902649543" opacity="0.58"/><polyline points="113.563,193.604 118.173,187.667 125.001,181.295" stroke="#6c9dde" stroke-width="0.9016320264978013" opacity="0.68"/><polyline points="162.478,142.758 167.358,136.533 174.496,130.152" stroke="#6c9dde" stroke-width="0.9016320264978013" opacity="0.68"/><polyline points="120.386,193.382 125.135,187.610 131.756,180.715" stroke="#6c9dde" stroke-width="0.7566716533267458" opacity="0.56"/><polyline points="161.802,149.606 167.188,143.771 174.412,136.891" stroke="#6c9dde" stroke-width="0.7566716533267458" opacity="0.56"/><polyline points="126.472,192.958 131.057,186.865 137.783,180.333" stroke="#6c9dde" stroke-width="0.8445121206214313" opacity="0.69"/><polyline points="162.342,154.516 167.084,148.964 174.118,142.897" stroke="#6c9dde" stroke-width="0.8445121206214313" opacity="0.69"/><polyline points="132.194,192.532 136.814,185.884 143.452,180.153" stroke="#6c9dde" stroke-width="0.8776598307099435" opacity="0.55"/><polyline points="167.890,154.197 173.615,148.542" stroke="#6c9dde" stroke-width="0.8776598307099435" opacity="0.55"/><polyline points="138.697,192.183 143.250,185.788 149.898,180.092" stroke="#6c9dde" stroke-width="0.7457758473598514" opacity="0.68"/><polyline points="146.754,192.025 152.106,186.996 157.891,179.975" stroke="#6c9dde" stroke-width="0.8568982449987448" opacity="0.55"/><polyline points="152.908,191.996 157.920,186.764 164.001,179.687" stroke="#6c9dde" stroke-width="0.746436579600342" opacity="0.68"/><polyline points="159.072,191.878 163.802,186.273 170.128,179.206" stroke="#6c9dde" stroke-width="0.9364703121508778" opacity="0.59"/><polyline points="166.790,191.440 173.683,183.502" stroke="#6c9dde" stroke-width="0.7316848672243551" opacity="0.67"/><polyline points="172.199,190.953 174.055,188.850" stroke="#6c9dde" stroke-width="0.9499293865199989" opacity="0.62"/><polyline points="18.357,1.370 25.703,1.313 33.036,1.143 40.352,1.108 47.647,1.278 54.920,1.483 62.167,1.450 69.387,1.011 76.579,0.247 83.741,-0.553 90.872,-1.087 97.975,-1.238 105.048,-1.139 112.093,-1.058 119.113,-1.176 126.108,-1.447 133.083,-1.628 140.039,-1.462 146.981,-0.880 153.912,-0.071 160.835,0.645 167.755,1.027 174.676,1.071 174.577,7.969 174.173,14.856 173.484,21.733 172.906,28.602 172.870,35.467 173.452,42.328 174.301,49.189 174.940,56.052 175.177,62.920 175.238,69.794 175.508,76.676 176.122,83.570 176.799,90.476 177.071,97.397 176.696,104.334 175.888,111.289 175.126,118.262 174.746,125.255 174.665,132.268 174.509,139.302 174.012,146.356 173.304,153.430 172.694,154.037 161.050,154.569 161.868,147.300 162.452,140.047 162.643,132.813 162.712,125.599 163.050,118.404 163.737,111.231 164.422,104.079 164.621,96.947 164.158,89.837 163.331,82.747 162.645,75.676 162.358,68.623 162.280,61.588 162.007,54.567 161.363,47.560 160.614,40.565 160.257,33.579 160.566,26.600 161.337,19.625 162.073,12.653 154.947,11.985 147.832,11.176 140.724,10.571 133.619,10.407 126.512,10.645 119.399,11.017 112.276,11.241 105.139,11.242 97.984,11.203 90.807,11.403 83.607,11.981 76.379,12.800 69.123,13.527 61.836,13.867 54.518,13.774 47.168,13.463 39.787,13.235 32.376,13.230 32.171,20.214 31.604,27.182 31.132,34.134 30.975,41.073 30.930,48.001 30.622,55.171 29.822,62.334 28.848,69.493 28.262,76.650 28.355,83.809 28.895,90.971 29.375,98.140 29.522,105.318 29.543,112.507 29.880,119.710 30.707,126.928 31.699,134.164 32.295,141.418 32.212,148.693 31.689,155.989 31.233,163.306 31.111,170.646 31.109,178.009 38.081,177.834 45.049,178.126 52.016,178.749 58.986,179.400 65.965,179.816 72.955,179.961 79.960,180.029 86.985,180.270 94.031,180.783 101.101,181.414 108.199,181.855 115.325,181.865 122.481,181.442 129.667,180.828 136.883,180.329 144.130,180.103 151.406,180.054 158.709,179.929 166.037,179.536 173.389,178.907 174.137,190.953 166.822,191.621 159.515,192.037 152.220,192.167 144.941,192.196 137.680,192.371 130.441,192.794 123.227,193.328 116.039,193.686 108.879,193.631 101.748,193.149 94.646,192.463 87.574,191.880 80.532,191.577 73.518,191.493 66.530,191.397 59.567,191.077 52.626,190.522 45.705,189.950 38.799,189.658 31.907,189.816 25.023,190.345 18.144,190.968 18.774,183.742 18.904,176.531 18.822,169.337 18.924,162.161 19.302,155.004 19.641,147.868 19.505,140.753 18.767,133.658 17.754,126.584 16.982,119.531 16.719,112.498 16.783,105.484 16.765,98.488 16.451,91.509 16.052,84.544 16.014,77.593 16.589,70.653 17.574,63.723 18.464,56.799 18.878,49.879 18.871,42.962 18.826,36.045 19.055,29.125 19.472,22.199 19.660,15.267 19.267,8.324 18.357,1.370" stroke="#0052d9" stroke-width="1.65" opacity="1.0"/><polyline points="18.462,1.841 25.804,1.372 33.124,0.779 40.437,0.389 47.745,0.335 55.034,0.487 62.278,0.580 69.465,0.421 76.598,0.041 83.698,-0.342 90.789,-0.496 97.880,-0.370 104.960,-0.145 112.012,-0.106 119.023,-0.426 125.997,-1.025 132.958,-1.602 139.927,-1.836 146.914,-1.592 153.906,-1.003 160.885,-0.354 167.834,0.124 174.758,0.411 175.152,7.305 175.082,14.174 174.479,21.022 173.714,27.868 173.271,34.731 173.338,41.616 173.702,48.513 174.019,55.404 174.185,62.282 174.446,69.159 175.132,76.054 176.267,82.976 177.425,89.915 178.006,96.849 177.682,103.768 176.648,110.684 175.448,117.622 174.537,124.598 173.983,131.608 173.548,138.634 173.046,145.667 172.613,152.712 172.037,153.294 160.424,153.570 160.923,146.304 161.477,139.056 161.932,131.823 162.478,124.609 163.361,117.418 164.500,110.252 165.411,103.109 165.544,95.981 164.745,88.864 163.413,81.764 162.199,74.686 161.514,67.631 161.280,60.595 161.137,53.573 160.869,46.563 160.635,39.565 160.787,32.579 161.455,25.600 162.335,18.627 162.900,11.659 155.744,11.033 148.589,10.430 141.450,10.160 134.336,10.401 127.242,11.046 120.149,11.756 113.037,12.190 105.900,12.237 98.743,12.071 91.576,11.991 84.403,12.186 77.212,12.582 69.985,12.924 62.711,12.988 55.390,12.776 48.028,12.530 40.638,12.539 33.227,12.903 33.171,19.898 32.472,26.897 31.625,33.876 30.958,40.824 30.407,47.755 29.730,54.942 28.826,62.151 28.042,69.367 27.885,76.558 28.518,83.712 29.550,90.843 30.329,97.983 30.491,105.153 30.239,112.341 30.094,119.524 30.375,126.695 30.919,133.874 31.302,141.095 31.308,148.374 31.151,155.700 31.229,163.043 31.643,170.390 32.012,177.752 38.978,177.214 45.955,177.244 52.942,177.753 59.930,178.453 66.919,179.077 73.912,179.553 80.919,180.020 87.948,180.663 95.004,181.513 102.085,182.358 109.188,182.851 116.314,182.742 123.464,182.047 130.641,181.052 137.848,180.133 145.090,179.519 152.365,179.185 159.665,178.933 166.984,178.594 174.319,178.193 174.989,190.269 167.646,190.696 160.320,191.038 153.019,191.276 145.738,191.574 138.470,192.129 131.211,192.974 123.969,193.897 116.762,194.542 109.605,194.624 102.499,194.105 95.431,193.218 88.387,192.305 81.358,191.601 74.347,191.115 67.363,190.680 60.414,190.142 53.495,189.523 46.594,189.051 39.699,189.005 32.801,189.515 25.898,190.443 18.995,191.451 19.774,184.191 19.752,176.973 19.266,169.784 18.831,162.603 18.703,155.426 18.711,148.272 18.519,141.163 18.012,134.108 17.447,127.087 17.210,120.072 17.416,113.052 17.749,106.035 17.726,99.040 17.137,92.076 16.271,85.131 15.705,78.181 15.839,71.214 16.592,64.234 17.522,57.265 18.238,50.324 18.709,43.407 19.187,36.492 19.839,29.560 20.463,22.612 20.583,15.669 19.864,8.748 18.462,1.841" stroke="#0052d9" stroke-width=".85" opacity=".45"/><polyline points="101.825,20.595 102.189,20.597 101.155,28.157 100.570,35.728 100.539,43.307 100.691,50.890 100.605,58.476 100.272,66.060 100.115,73.642 100.548,81.217 101.526,88.784 102.540,96.340 103.076,103.882 95.730,103.809 88.372,103.851 81.006,104.107 73.637,104.432 66.267,104.547 58.902,104.251 51.545,103.579 44.199,102.797 43.814,102.758 43.604,102.190 44.684,100.480 49.201,94.801 50.459,92.399 54.724,86.615 56.014,84.143 58.832,80.600 60.298,78.045 63.392,74.336 65.044,71.691 70.438,65.067 72.156,62.313 73.359,61.088 77.002,55.475 80.042,51.387 81.525,48.578 84.434,44.505 85.888,41.713 88.854,37.699 93.234,31.016 94.435,29.839 98.366,24.428 101.825,20.595" stroke="#0052d9" stroke-width="1.65" opacity="1.0"/><polyline points="102.825,21.553 103.189,21.560 101.983,29.103 100.953,36.662 100.350,44.239 99.993,51.826 99.628,59.410 99.340,66.987 99.535,74.565 100.512,82.150 102.046,89.736 103.444,97.309 104.067,104.858 96.721,104.604 89.363,104.318 81.994,104.160 74.621,104.061 67.250,103.820 59.888,103.302 52.538,102.585 45.198,101.940 44.813,101.913 44.604,101.352 45.676,99.609 50.048,93.831 51.193,91.414 55.095,85.618 56.202,83.154 58.749,79.651 60.022,77.126 62.857,73.504 64.349,70.916 69.481,64.528 71.160,61.862 72.359,60.702 76.099,55.293 79.317,51.383 80.964,48.661 84.156,44.757 85.820,42.047 89.093,38.191 93.919,31.713 95.183,30.586 99.319,25.307 102.825,21.553" stroke="#0052d9" stroke-width=".85" opacity=".45"/><polyline points="112.338,43.335 113.077,43.294 113.892,45.160 114.666,45.876 119.056,53.766 123.195,61.584 123.946,62.273 127.927,69.712 132.412,77.195 133.261,77.904 136.179,82.717 137.055,83.440 139.560,87.551 140.429,88.288 143.278,93.189 144.104,93.942 146.606,98.885 147.741,100.416 147.536,101.364 138.709,101.568 129.839,102.363 120.931,103.352 110.384,103.840 109.452,91.358 117.845,90.756 126.229,89.792 124.746,87.617 123.863,86.933 120.852,82.189 119.984,81.500 117.185,76.729 116.363,76.030 113.889,71.221 113.119,70.506 110.915,65.652 110.179,64.922 108.075,60.021 107.343,59.277 104.799,53.573 104.051,52.816 102.529,49.758 102.522,49.374 104.158,48.010 112.338,43.335" stroke="#0052d9" stroke-width="1.65" opacity="1.0"/><polyline points="112.147,44.282 112.890,44.226 113.566,46.074 114.289,46.771 118.218,54.518 122.196,62.155 122.949,62.807 127.131,70.035 132.074,77.260 132.974,77.919 136.259,82.561 137.190,83.234 139.996,87.203 140.916,87.893 144.052,92.646 144.914,93.359 147.575,98.189 148.732,99.674 148.535,100.630 139.708,101.268 130.839,102.578 121.926,104.027 111.375,104.818 110.129,92.346 118.488,91.552 126.813,90.208 125.187,88.110 124.256,87.471 120.891,82.867 119.970,82.215 116.813,77.549 115.942,76.876 113.168,72.135 112.362,71.438 109.972,66.623 109.218,65.903 107.079,61.018 106.354,60.276 103.969,54.566 103.255,53.803 101.895,50.726 101.911,50.342 103.634,48.998 112.147,44.282" stroke="#0052d9" stroke-width=".85" opacity=".45"/><polyline points="88.012,60.181 84.517,65.127 83.313,66.340 81.638,69.106 80.446,70.325 79.624,71.899 78.453,73.119 76.905,75.881 75.778,77.097 75.056,78.661 73.964,79.869 72.611,82.599 69.924,86.506 68.708,89.176 67.701,90.324 66.790,92.203 67.006,92.387 74.367,92.067 81.743,91.604 89.131,91.274 88.043,83.527 87.454,75.761 87.570,67.979 88.012,60.181" stroke="#0052d9" stroke-width="1.65" opacity="1.0"/><polyline points="87.016,60.630 83.561,65.383 82.388,66.527 80.815,69.196 79.680,70.345 78.940,71.870 77.841,73.022 76.473,75.694 75.432,76.845 74.826,78.368 73.825,79.515 72.681,82.172 70.286,85.942 69.254,88.555 68.318,89.657 67.514,91.498 67.740,91.690 75.083,91.735 82.434,91.700 89.804,91.780 88.185,83.977 87.014,76.180 86.701,68.403 87.016,60.630" stroke="#0052d9" stroke-width=".85" opacity=".45"/><polyline points="147.641,109.172 147.843,108.983 148.355,109.560 148.191,111.465 148.529,111.850 148.367,113.756 148.706,114.141 148.531,116.429 148.874,116.814 148.754,118.721 149.101,119.107 148.995,121.397 146.971,121.578 146.591,121.960 144.389,121.981 144.011,122.371 137.385,123.060 137.011,123.471 133.695,123.762 133.324,124.184 128.896,124.674 128.526,125.102 123.719,125.668 123.352,126.094 117.419,126.660 117.055,127.071 106.628,127.364 106.268,127.739 96.532,127.439 86.739,127.272 86.337,126.900 75.343,127.098 74.932,126.736 63.070,126.171 62.653,125.782 58.437,125.457 58.018,125.056 54.562,124.704 54.142,124.296 51.065,123.947 50.645,123.537 45.216,122.575 44.796,122.170 43.253,122.021 42.623,121.420 42.977,121.089 43.114,117.467 43.483,117.138 43.423,115.676 43.797,115.348 43.751,113.520 44.131,113.194 44.111,111.732 44.680,110.512 47.386,110.803 47.776,111.212 53.579,112.228 53.969,112.635 57.062,112.940 57.452,113.341 61.704,113.655 62.094,114.045 72.902,114.566 73.290,114.929 82.524,114.647 82.908,115.009 91.854,114.912 100.766,115.084 109.640,115.152 110.031,114.762 118.740,114.292 119.135,113.874 124.794,113.283 125.191,112.854 134.235,111.466 134.635,111.047 138.008,110.778 138.410,110.370 141.403,110.216 141.806,109.819 144.796,109.749 145.199,109.363 147.641,109.172" stroke="#0052d9" stroke-width="1.65" opacity="1.0"/><polyline points="148.497,108.434 148.707,108.237 149.195,108.794 148.942,110.705 149.261,111.077 148.992,112.989 149.307,113.362 148.983,115.656 149.299,116.029 149.042,117.940 149.361,118.313 149.082,120.607 147.043,120.866 146.634,121.265 144.430,121.385 144.022,121.792 137.343,122.834 136.938,123.267 133.600,123.752 133.196,124.195 128.731,124.943 128.329,125.392 123.479,126.213 123.081,126.657 117.106,127.472 116.712,127.895 106.264,128.364 105.878,128.738 96.162,128.262 86.382,127.652 86.006,127.258 74.998,126.821 74.614,126.436 62.793,125.328 62.405,124.926 58.213,124.501 57.825,124.092 54.395,123.706 54.006,123.297 50.956,122.957 50.567,122.551 45.212,121.689 44.823,121.296 43.291,121.195 42.708,120.615 43.087,120.271 43.493,116.645 43.885,116.304 43.925,114.844 44.321,114.504 44.389,112.677 44.789,112.339 44.849,110.877 45.478,109.640 48.171,109.866 48.540,110.267 54.291,111.228 54.659,111.635 57.734,111.963 58.101,112.370 62.334,112.772 62.700,113.172 73.477,114.155 73.841,114.538 83.094,114.788 83.455,115.173 92.407,115.549 101.307,116.022 110.177,116.138 110.593,115.744 119.332,115.056 119.752,114.623 125.446,113.774 125.868,113.325 134.986,111.424 135.408,110.981 138.794,110.517 139.214,110.086 142.215,109.768 142.635,109.351 145.627,109.133 146.047,108.729 148.497,108.434" stroke="#0052d9" stroke-width=".85" opacity=".45"/><polyline points="79.777,144.925 86.901,144.880 94.000,145.045 101.077,145.379 108.135,145.627 115.177,145.511 113.782,157.849 106.763,157.894 99.745,157.564 92.724,157.140 85.695,156.890 78.656,156.866 79.777,144.925" stroke="#0052d9" stroke-width="1.65" opacity="1.0"/><polyline points="78.789,144.905 85.912,145.269 93.013,145.774 100.095,146.323 107.157,146.624 114.197,146.392 113.371,158.766 106.355,158.894 99.314,158.478 92.263,157.816 85.218,157.213 78.176,156.781 78.789,144.905" stroke="#0052d9" stroke-width=".85" opacity=".45"/></g><text x="120" y="238" text-anchor="middle" font-size="13" fill="#344054" font-family="system-ui,sans-serif">传媒云原生移动开发平台</text></svg>