<svg xmlns="http://www.w3.org/2000/svg" width="240" height="272" viewBox="0 0 240 272"><g transform="translate(24 12)" fill="none" stroke-linecap="round" stroke-linejoin="round"><polyline points="24.000,32.250 32.250,24.000" stroke="#6c9dde" stroke-width="0.8" opacity="0.7"/><polyline points="11.250,50.625 50.625,11.250" stroke="#6c9dde" stroke-width="0.8" opacity="0.7"/><polyline points="6.375,61.125 61.125,6.375" stroke="#6c9dde" stroke-width="0.8" opacity="0.7"/><polyline points="3.375,69.750 69.750,3.375" stroke="#6c9dde" stroke-width="0.8" opacity="0.7"/><polyline points="1.875,76.875 21.750,57.000" stroke="#6c9dde" stroke-width="0.8" opacity="0.7"/><polyline points="57.000,21.750 76.875,1.875" stroke="#6c9dde" stroke-width="0.8" opacity="0.7"/><polyline points="0.750,83.625 17.250,67.125" stroke="#6c9dde" stroke-width="0.8" opacity="0.7"/><polyline points="67.125,17.250 83.625,0.750" stroke="#6c9dde" stroke-width="0.8" opacity="0.7"/><polyline points="0.000,90.000 14.625,75.375" stroke="#6c9dde" stroke-width="0.8" opacity="0.7"/><polyline points="75.375,14.625 90.000,0.000" stroke="#6c9dde" stroke-width="0.8" opacity="0.7"/><polyline points="0.000,95.625 13.125,82.500" stroke="#6c9dde" stroke-width="0.8" opacity="0.7"/><polyline points="82.500,13.125 95.625,0.000" stroke="#6c9dde" stroke-width="0.8" opacity="0.7"/><polyline points="0.000,101.250 12.375,88.875" stroke="#6c9dde" stroke-width="0.8" opacity="0.7"/><polyline points="88.875,12.375 101.250,0.000" stroke="#6c9dde" stroke-width="0.8" opacity="0.7"/><polyline points="0.375,106.500 12.000,94.875" stroke="#6c9dde" stroke-width="0.8" opacity="0.7"/><polyline points="94.875,12.000 106.500,0.375" stroke="#6c9dde" stroke-width="0.8" opacity="0.7"/><polyline points="1.125,111.375 12.000,100.500" stroke="#6c9dde" stroke-width="0.8" opacity="0.7"/><polyline points="100.500,12.000 111.375,1.125" stroke="#6c9dde" stroke-width="0.8" opacity="0.7"/><polyline points="2.250,115.875 12.750,105.375" stroke="#6c9dde" stroke-width="0.8" opacity="0.7"/><polyline points="105.375,12.750 115.875,2.250" stroke="#6c9dde" stroke-width="0.8" opacity="0.7"/><polyline points="3.000,120.750 13.125,110.625" stroke="#6c9dde" stroke-width="0.8" opacity="0.7"/><polyline points="54.375,69.375 69.375,54.375" stroke="#6c9dde" stroke-width="0.8" opacity="0.7"/><polyline points="110.625,13.125 120.750,3.000" stroke="#6c9dde" stroke-width="0.8" opacity="0.7"/><polyline points="4.500,124.875 14.250,115.125" stroke="#6c9dde" stroke-width="0.8" opacity="0.7"/><polyline points="54.000,75.375 75.375,54.000" stroke="#6c9dde" stroke-width="0.8" opacity="0.7"/><polyline points="115.125,14.250 124.875,4.500" stroke="#6c9dde" stroke-width="0.8" opacity="0.7"/><polyline points="6.000,129.000 15.375,119.625" stroke="#6c9dde" stroke-width="0.8" opacity="0.7"/><polyline points="54.375,80.625 80.625,54.375" stroke="#6c9dde" stroke-width="0.8" opacity="0.7"/><polyline points="119.625,15.375 129.000,6.000" stroke="#6c9dde" stroke-width="0.8" opacity="0.7"/><polyline points="7.500,133.125 16.875,123.750" stroke="#6c9dde" stroke-width="0.8" opacity="0.7"/><polyline points="55.500,85.125 66.000,74.625" stroke="#6c9dde" stroke-width="0.8" opacity="0.7"/><polyline points="74.625,66.000 85.125,55.500" stroke="#6c9dde" stroke-width="0.8" opacity="0.7"/><polyline points="123.750,16.875 133.125,7.500" stroke="#6c9dde" stroke-width="0.8" opacity="0.7"/><polyline points="9.375,136.875 18.375,127.875" stroke="#6c9dde" stroke-width="0.8" opacity="0.7"/><polyline points="57.000,89.250 62.250,84.000" stroke="#6c9dde" stroke-width="0.8" opacity="0.7"/><polyline points="79.875,66.375 89.250,57.000" stroke="#6c9dde" stroke-width="0.8" opacity="0.7"/><polyline points="127.875,18.375 136.875,9.375" stroke="#6c9dde" stroke-width="0.8" opacity="0.7"/><polyline points="11.250,140.625 19.875,132.000" stroke="#6c9dde" stroke-width="0.8" opacity="0.7"/><polyline points="84.000,67.875 93.375,58.500" stroke="#6c9dde" stroke-width="0.8" opacity="0.7"/><polyline points="132.000,19.875 140.625,11.250" stroke="#6c9dde" stroke-width="0.8" opacity="0.7"/><polyline points="13.125,144.375 21.750,135.750" stroke="#6c9dde" stroke-width="0.8" opacity="0.7"/><polyline points="61.500,96.000 97.125,60.375" stroke="#6c9dde" stroke-width="0.8" opacity="0.7"/><polyline points="135.750,21.750 144.375,13.125" stroke="#6c9dde" stroke-width="0.8" opacity="0.7"/><polyline points="15.375,147.750 24.000,139.125" stroke="#6c9dde" stroke-width="0.8" opacity="0.7"/><polyline points="56.625,106.500 106.500,56.625" stroke="#6c9dde" stroke-width="0.8" opacity="0.7"/><polyline points="139.125,24.000 147.750,15.375" stroke="#6c9dde" stroke-width="0.8" opacity="0.7"/><polyline points="17.625,151.125 26.250,142.500" stroke="#6c9dde" stroke-width="0.8" opacity="0.7"/><polyline points="54.750,114.000 114.000,54.750" stroke="#6c9dde" stroke-width="0.8" opacity="0.7"/><polyline points="142.500,26.250 151.125,17.625" stroke="#6c9dde" stroke-width="0.8" opacity="0.7"/><polyline points="19.875,154.500 28.500,145.875" stroke="#6c9dde" stroke-width="0.8" opacity="0.7"/><polyline points="54.000,120.375 75.375,99.000" stroke="#6c9dde" stroke-width="0.8" opacity="0.7"/><polyline points="99.000,75.375 120.375,54.000" stroke="#6c9dde" stroke-width="0.8" opacity="0.7"/><polyline points="145.875,28.500 154.500,19.875" stroke="#6c9dde" stroke-width="0.8" opacity="0.7"/><polyline points="22.500,157.500 30.750,149.250" stroke="#6c9dde" stroke-width="0.8" opacity="0.7"/><polyline points="54.375,125.625 67.500,112.500" stroke="#6c9dde" stroke-width="0.8" opacity="0.7"/><polyline points="69.375,110.625 77.625,102.375" stroke="#6c9dde" stroke-width="0.8" opacity="0.7"/><polyline points="102.375,77.625 110.625,69.375" stroke="#6c9dde" stroke-width="0.8" opacity="0.7"/><polyline points="112.500,67.500 125.625,54.375" stroke="#6c9dde" stroke-width="0.8" opacity="0.7"/><polyline points="149.250,30.750 157.500,22.500" stroke="#6c9dde" stroke-width="0.8" opacity="0.7"/><polyline points="25.125,160.500 33.375,152.250" stroke="#6c9dde" stroke-width="0.8" opacity="0.7"/><polyline points="55.875,129.750 66.000,119.625" stroke="#6c9dde" stroke-width="0.8" opacity="0.7"/><polyline points="72.000,113.625 80.250,105.375" stroke="#6c9dde" stroke-width="0.8" opacity="0.7"/><polyline points="105.375,80.250 113.625,72.000" stroke="#6c9dde" stroke-width="0.8" opacity="0.7"/><polyline points="119.625,66.000 130.125,55.500" stroke="#6c9dde" stroke-width="0.8" opacity="0.7"/><polyline points="152.250,33.375 160.500,25.125" stroke="#6c9dde" stroke-width="0.8" opacity="0.7"/><polyline points="27.750,163.500 36.375,154.875" stroke="#6c9dde" stroke-width="0.8" opacity="0.7"/><polyline points="57.750,133.500 66.375,124.875" stroke="#6c9dde" stroke-width="0.8" opacity="0.7"/><polyline points="74.625,116.625 82.875,108.375" stroke="#6c9dde" stroke-width="0.8" opacity="0.7"/><polyline points="108.375,82.875 116.625,74.625" stroke="#6c9dde" stroke-width="0.8" opacity="0.7"/><polyline points="124.875,66.375 133.500,57.750" stroke="#6c9dde" stroke-width="0.8" opacity="0.7"/><polyline points="154.875,36.375 163.500,27.750" stroke="#6c9dde" stroke-width="0.8" opacity="0.7"/><polyline points="30.750,166.125 39.000,157.875" stroke="#6c9dde" stroke-width="0.8" opacity="0.7"/><polyline points="60.375,136.500 68.625,128.250" stroke="#6c9dde" stroke-width="0.8" opacity="0.7"/><polyline points="77.250,119.625 85.500,111.375" stroke="#6c9dde" stroke-width="0.8" opacity="0.7"/><polyline points="111.375,85.500 119.625,77.250" stroke="#6c9dde" stroke-width="0.8" opacity="0.7"/><polyline points="128.250,68.625 136.500,60.375" stroke="#6c9dde" stroke-width="0.8" opacity="0.7"/><polyline points="157.875,39.000 166.125,30.750" stroke="#6c9dde" stroke-width="0.8" opacity="0.7"/><polyline points="33.750,168.750 42.000,160.500" stroke="#6c9dde" stroke-width="0.8" opacity="0.7"/><polyline points="63.750,138.750 73.125,129.375" stroke="#6c9dde" stroke-width="0.8" opacity="0.7"/><polyline points="80.250,122.250 88.500,114.000" stroke="#6c9dde" stroke-width="0.8" opacity="0.7"/><polyline points="114.000,88.500 122.250,80.250" stroke="#6c9dde" stroke-width="0.8" opacity="0.7"/><polyline points="129.375,73.125 138.750,63.750" stroke="#6c9dde" stroke-width="0.8" opacity="0.7"/><polyline points="160.500,42.000 168.750,33.750" stroke="#6c9dde" stroke-width="0.8" opacity="0.7"/><polyline points="36.750,171.375 45.000,163.125" stroke="#6c9dde" stroke-width="0.8" opacity="0.7"/><polyline points="67.500,140.625 79.125,129.000" stroke="#6c9dde" stroke-width="0.8" opacity="0.7"/><polyline points="83.250,124.875 91.500,116.625" stroke="#6c9dde" stroke-width="0.8" opacity="0.7"/><polyline points="116.625,91.500 124.875,83.250" stroke="#6c9dde" stroke-width="0.8" opacity="0.7"/><polyline points="129.000,79.125 140.625,67.500" stroke="#6c9dde" stroke-width="0.8" opacity="0.7"/><polyline points="163.125,45.000 171.375,36.750" stroke="#6c9dde" stroke-width="0.8" opacity="0.7"/><polyline points="39.750,174.000 48.375,165.375" stroke="#6c9dde" stroke-width="0.8" opacity="0.7"/><polyline points="72.375,141.375 94.875,118.875" stroke="#6c9dde" stroke-width="0.8" opacity="0.7"/><polyline points="118.875,94.875 141.375,72.375" stroke="#6c9dde" stroke-width="0.8" opacity="0.7"/><polyline points="165.375,48.375 174.000,39.750" stroke="#6c9dde" stroke-width="0.8" opacity="0.7"/><polyline points="43.125,176.250 51.750,167.625" stroke="#6c9dde" stroke-width="0.8" opacity="0.7"/><polyline points="78.000,141.375 100.875,118.500" stroke="#6c9dde" stroke-width="0.8" opacity="0.7"/><polyline points="118.500,100.875 141.375,78.000" stroke="#6c9dde" stroke-width="0.8" opacity="0.7"/><polyline points="167.625,51.750 176.250,43.125" stroke="#6c9dde" stroke-width="0.8" opacity="0.7"/><polyline points="46.500,178.500 55.500,169.500" stroke="#6c9dde" stroke-width="0.8" opacity="0.7"/><polyline points="85.125,139.875 139.875,85.125" stroke="#6c9dde" stroke-width="0.8" opacity="0.7"/><polyline points="169.500,55.500 178.500,46.500" stroke="#6c9dde" stroke-width="0.8" opacity="0.7"/><polyline points="50.250,180.375 59.250,171.375" stroke="#6c9dde" stroke-width="0.8" opacity="0.7"/><polyline points="93.750,136.875 136.875,93.750" stroke="#6c9dde" stroke-width="0.8" opacity="0.7"/><polyline points="171.375,59.250 180.375,50.250" stroke="#6c9dde" stroke-width="0.8" opacity="0.7"/><polyline points="54.000,182.250 63.000,173.250" stroke="#6c9dde" stroke-width="0.8" opacity="0.7"/><polyline points="100.125,136.125 129.000,107.250" stroke="#6c9dde" stroke-width="0.8" opacity="0.7"/><polyline points="173.250,63.000 182.250,54.000" stroke="#6c9dde" stroke-width="0.8" opacity="0.7"/><polyline points="57.750,184.125 67.125,174.750" stroke="#6c9dde" stroke-width="0.8" opacity="0.7"/><polyline points="104.250,137.625 113.625,128.250" stroke="#6c9dde" stroke-width="0.8" opacity="0.7"/><polyline points="174.750,67.125 184.125,57.750" stroke="#6c9dde" stroke-width="0.8" opacity="0.7"/><polyline points="61.875,185.625 71.250,176.250" stroke="#6c9dde" stroke-width="0.8" opacity="0.7"/><polyline points="108.375,139.125 118.125,129.375" stroke="#6c9dde" stroke-width="0.8" opacity="0.7"/><polyline points="129.375,118.125 139.125,108.375" stroke="#6c9dde" stroke-width="0.8" opacity="0.7"/><polyline points="176.250,71.250 185.625,61.875" stroke="#6c9dde" stroke-width="0.8" opacity="0.7"/><polyline points="66.000,187.125 75.750,177.375" stroke="#6c9dde" stroke-width="0.8" opacity="0.7"/><polyline points="112.875,140.250 124.125,129.000" stroke="#6c9dde" stroke-width="0.8" opacity="0.7"/><polyline points="129.000,124.125 140.250,112.875" stroke="#6c9dde" stroke-width="0.8" opacity="0.7"/><polyline points="177.375,75.750 187.125,66.000" stroke="#6c9dde" stroke-width="0.8" opacity="0.7"/><polyline points="70.125,188.625 80.250,178.500" stroke="#6c9dde" stroke-width="0.8" opacity="0.7"/><polyline points="117.375,141.375 141.375,117.375" stroke="#6c9dde" stroke-width="0.8" opacity="0.7"/><polyline points="180.750,78.000 188.625,70.125" stroke="#6c9dde" stroke-width="0.8" opacity="0.7"/><polyline points="74.625,189.750 85.125,179.250" stroke="#6c9dde" stroke-width="0.8" opacity="0.7"/><polyline points="123.000,141.375 141.375,123.000" stroke="#6c9dde" stroke-width="0.8" opacity="0.7"/><polyline points="186.375,78.000 189.750,74.625" stroke="#6c9dde" stroke-width="0.8" opacity="0.7"/><polyline points="79.500,190.500 90.375,179.625" stroke="#6c9dde" stroke-width="0.8" opacity="0.7"/><polyline points="130.125,139.875 139.875,130.125" stroke="#6c9dde" stroke-width="0.8" opacity="0.7"/><polyline points="84.375,191.250 95.625,180.000" stroke="#6c9dde" stroke-width="0.8" opacity="0.7"/><polyline points="89.625,191.625 101.625,179.625" stroke="#6c9dde" stroke-width="0.8" opacity="0.7"/><polyline points="95.250,191.625 107.625,179.250" stroke="#6c9dde" stroke-width="0.8" opacity="0.7"/><polyline points="100.875,191.625 114.750,177.750" stroke="#6c9dde" stroke-width="0.8" opacity="0.7"/><polyline points="177.750,114.750 184.500,108.000" stroke="#6c9dde" stroke-width="0.8" opacity="0.7"/><polyline points="106.500,191.625 122.625,175.500" stroke="#6c9dde" stroke-width="0.8" opacity="0.7"/><polyline points="175.500,122.625 190.125,108.000" stroke="#6c9dde" stroke-width="0.8" opacity="0.7"/><polyline points="113.250,190.500 132.000,171.750" stroke="#6c9dde" stroke-width="0.8" opacity="0.7"/><polyline points="171.750,132.000 190.500,113.250" stroke="#6c9dde" stroke-width="0.8" opacity="0.7"/><polyline points="120.375,189.000 146.250,163.125" stroke="#6c9dde" stroke-width="0.8" opacity="0.7"/><polyline points="163.125,146.250 189.000,120.375" stroke="#6c9dde" stroke-width="0.8" opacity="0.7"/><polyline points="128.625,186.375 186.375,128.625" stroke="#6c9dde" stroke-width="0.8" opacity="0.7"/><polyline points="138.375,182.250 182.250,138.375" stroke="#6c9dde" stroke-width="0.8" opacity="0.7"/><polyline points="152.250,174.000 174.000,152.250" stroke="#6c9dde" stroke-width="0.8" opacity="0.7"/><polyline points="88.312,0.000 103.500,-0.188 103.875,0.188 106.500,0.188 106.875,0.562 112.125,0.938 112.500,1.312 117.750,2.062 118.125,2.438 120.750,2.812 122.250,3.562 123.375,3.562 123.750,3.938 130.125,5.812 131.250,6.562 132.000,6.562 142.875,11.812 143.625,12.562 145.500,13.312 147.375,14.812 148.500,15.188 149.625,16.312 155.250,20.062 159.375,23.812 159.750,23.812 168.188,32.250 168.188,32.625 170.438,34.875 170.438,35.250 174.188,39.750 178.688,46.500 184.312,57.375 184.312,58.125 186.188,61.875 186.188,62.625 188.438,68.625 188.438,69.750 189.188,71.250 189.188,72.375 189.938,74.250 189.938,75.750 190.312,76.125 190.312,78.000 178.125,78.188 177.562,77.625 176.438,72.000 176.062,71.625 174.938,67.500 174.188,66.375 173.812,64.500 172.688,62.625 172.688,61.875 169.312,55.125 162.938,45.375 159.562,41.625 159.562,41.250 150.750,32.438 150.375,32.438 145.125,27.938 140.625,24.938 137.625,23.438 136.875,22.688 130.125,19.312 129.375,19.312 127.500,18.188 125.625,17.812 124.500,17.062 123.750,17.062 120.000,15.562 118.875,15.562 117.375,14.812 114.375,14.438 114.000,14.062 112.500,14.062 112.125,13.688 110.625,13.688 110.250,13.312 108.375,13.312 108.000,12.938 100.875,12.562 100.500,12.188 91.500,12.188 91.125,12.562 87.000,12.562 86.625,12.938 84.000,12.938 83.625,13.312 79.500,13.688 79.125,14.062 78.000,14.062 77.625,14.438 72.000,15.562 71.625,15.938 67.500,17.062 66.375,17.812 64.500,18.188 52.500,24.188 45.375,29.062 41.625,32.438 41.250,32.438 37.125,36.562 36.750,36.562 36.562,37.125 32.438,41.250 32.438,41.625 30.562,43.500 27.188,48.000 24.188,52.500 23.438,54.375 22.688,55.125 19.312,61.875 19.312,62.625 17.438,66.375 17.438,67.125 15.562,72.000 15.562,73.125 14.812,74.625 14.812,75.750 14.438,76.125 14.438,77.625 14.062,78.000 13.688,81.375 13.312,81.750 13.312,83.625 12.938,84.000 12.562,91.125 12.188,91.500 12.188,100.500 12.562,100.875 12.938,108.000 13.312,108.375 13.312,110.250 13.688,110.625 13.688,112.500 14.062,112.875 14.062,114.000 14.812,115.875 14.812,117.375 15.562,118.875 15.562,120.000 15.938,120.375 17.062,124.500 17.812,125.625 17.812,126.375 19.312,129.375 19.312,130.125 24.188,139.500 27.188,144.000 28.312,145.125 29.062,146.625 32.438,150.375 32.438,150.750 36.562,154.875 36.562,155.250 37.125,155.438 41.250,159.562 41.625,159.562 45.375,162.938 46.875,163.688 48.000,164.812 52.500,167.812 61.125,172.312 61.875,172.312 64.500,173.812 66.375,174.188 67.500,174.938 68.250,174.938 70.875,176.062 72.000,176.062 73.500,176.812 74.625,176.812 75.000,177.188 76.125,177.188 76.500,177.562 77.625,177.562 79.500,178.312 83.625,178.688 84.000,179.062 91.125,179.438 91.500,179.812 100.500,179.812 100.875,179.438 108.000,179.062 108.375,178.688 110.250,178.688 110.625,178.312 112.125,178.312 112.500,177.938 114.000,177.938 114.375,177.562 117.000,177.188 125.625,174.562 136.875,169.312 137.625,168.562 138.750,168.188 145.125,164.062 150.375,159.562 150.750,159.562 161.438,148.500 164.812,144.000 167.062,140.625 167.438,139.500 168.188,138.750 168.562,137.625 169.312,136.875 173.812,127.500 174.188,125.625 174.938,124.500 174.938,123.750 176.438,120.000 176.812,117.375 177.562,115.875 178.312,110.625 178.688,110.250 178.688,108.375 179.250,107.812 191.250,107.812 191.438,109.500 191.062,109.875 191.062,112.125 190.688,112.500 189.938,117.750 189.562,118.125 189.188,120.750 188.438,122.250 188.438,123.375 188.062,123.750 186.562,129.000 184.312,133.875 184.312,134.625 180.188,142.875 179.438,143.625 176.812,148.500 175.688,149.625 174.188,152.250 170.438,156.750 170.438,157.125 159.750,168.188 159.375,168.188 157.125,170.438 149.625,176.062 148.500,176.438 142.875,180.188 134.625,184.312 133.875,184.312 130.125,186.188 129.375,186.188 123.375,188.438 122.250,188.438 120.750,189.188 119.625,189.188 117.750,189.938 116.250,189.938 115.875,190.312 114.375,190.312 114.000,190.688 112.500,190.688 112.125,191.062 106.875,191.438 106.500,191.812 85.125,191.812 84.750,191.438 82.125,191.438 81.750,191.062 79.875,191.062 79.500,190.688 78.000,190.688 77.625,190.312 76.125,190.312 75.750,189.938 74.250,189.938 73.875,189.562 71.250,189.188 69.750,188.438 68.625,188.438 68.250,188.062 63.000,186.562 61.875,185.812 61.125,185.812 60.000,185.062 57.375,184.312 46.500,178.688 36.750,171.938 32.625,168.188 32.250,168.188 23.812,159.750 23.812,159.375 21.562,157.125 21.562,156.750 17.812,152.250 13.312,145.500 7.688,134.625 7.688,133.875 5.812,130.125 5.812,129.375 3.562,123.375 3.562,122.250 2.812,120.750 2.812,119.625 2.062,117.750 2.062,116.250 1.688,115.875 1.688,114.375 1.312,114.000 1.312,112.500 0.938,112.125 0.938,110.250 0.562,109.875 0.188,103.875 -0.188,103.500 -0.188,88.500 0.188,88.125 0.188,85.125 0.562,84.750 0.938,79.875 1.312,79.500 1.312,78.000 1.688,77.625 1.688,76.125 2.062,75.750 2.062,74.250 2.438,73.875 3.188,69.750 3.562,69.375 5.812,61.875 6.562,60.750 6.562,60.000 12.188,48.375 15.562,43.500 15.938,42.375 17.062,41.250 20.062,36.750 23.812,32.625 23.812,32.250 32.250,23.812 32.625,23.812 34.875,21.562 35.250,21.562 39.750,17.812 48.375,12.188 60.000,6.562 61.875,6.188 63.000,5.438 63.750,5.438 69.750,3.188 70.875,3.188 71.250,2.812 72.375,2.812 74.250,2.062 75.750,2.062 76.125,1.688 77.625,1.688 78.000,1.312 79.500,1.312 79.875,0.938 88.312,0.000" stroke="#0052d9" stroke-width="1.35" opacity="1"/><polyline points="71.438,54.000 78.000,53.812 78.375,54.188 82.500,54.562 82.875,54.938 85.500,55.312 85.875,55.688 91.125,57.188 97.125,60.188 98.250,60.188 101.625,58.312 102.375,58.312 103.500,57.562 104.250,57.562 105.375,56.812 106.125,56.812 109.875,55.312 111.000,55.312 112.875,54.562 114.375,54.562 114.750,54.188 117.000,54.188 117.375,53.812 123.750,53.812 124.125,54.188 127.875,54.562 132.375,56.438 135.000,58.312 137.062,60.375 138.938,63.000 140.062,65.250 140.062,66.000 140.812,67.500 140.812,68.625 141.188,69.000 141.188,70.875 141.562,71.250 141.562,78.000 141.188,78.375 141.188,80.625 140.812,81.000 140.438,84.375 140.062,84.750 138.188,91.125 137.062,93.000 137.062,93.750 132.188,102.750 125.438,112.125 115.125,122.812 114.750,122.812 112.500,125.062 110.062,126.750 110.625,127.312 111.375,127.312 112.875,128.062 114.000,128.062 115.875,128.812 117.750,128.812 118.125,129.188 123.000,129.188 123.375,128.812 124.875,128.812 126.375,128.062 128.062,126.375 128.812,124.500 128.812,123.375 129.188,123.000 129.188,118.125 128.812,117.375 134.062,111.750 138.375,105.938 138.938,106.500 138.938,107.250 140.438,111.000 140.438,112.500 140.812,112.875 140.812,114.375 141.188,114.750 141.188,116.625 141.562,117.000 141.562,124.125 141.188,124.500 141.188,126.375 140.812,126.750 140.812,127.875 140.438,128.250 140.062,130.125 138.938,132.375 137.062,135.000 135.000,137.062 130.125,140.062 129.375,140.062 127.875,140.812 126.750,140.812 126.375,141.188 122.250,141.562 117.375,141.562 117.000,141.188 114.750,141.188 114.375,140.812 112.875,140.812 112.500,140.438 109.875,140.062 109.500,139.688 105.375,138.562 102.375,137.062 101.625,137.062 98.250,135.188 97.125,135.188 93.750,137.062 93.000,137.062 91.125,138.188 89.250,138.562 88.125,139.312 87.000,139.312 86.625,139.688 82.875,140.438 82.500,140.812 78.375,141.188 78.000,141.562 71.250,141.562 70.875,141.188 67.500,140.812 63.000,138.938 60.375,137.062 58.312,135.000 56.438,132.375 54.188,126.375 54.188,124.500 53.812,124.125 53.812,117.375 54.188,117.000 54.188,114.750 54.562,114.375 54.562,112.875 54.938,112.500 55.312,109.875 55.688,109.500 56.812,105.375 58.312,102.375 58.312,101.625 63.188,92.625 68.438,85.125 70.312,83.250 72.188,80.625 80.250,72.562 80.625,72.562 82.875,70.312 85.312,68.625 84.750,68.062 84.000,68.062 82.500,67.312 81.375,67.312 79.500,66.562 77.625,66.562 77.250,66.188 72.000,66.188 69.000,67.312 67.312,69.000 66.562,70.500 66.562,72.000 66.188,72.375 66.188,77.250 66.562,77.625 66.562,78.375 63.188,82.500 59.438,88.125 57.938,91.125 57.750,91.312 57.188,90.750 55.688,85.875 55.312,85.500 55.312,84.375 54.562,82.500 54.562,81.000 54.188,80.625 54.188,78.375 53.812,78.000 53.812,71.250 54.188,70.875 54.188,69.000 54.562,68.625 54.562,67.500 54.938,67.125 55.312,65.250 58.312,60.375 61.875,57.188 66.375,54.938 68.625,54.562 69.000,54.188 71.438,54.000" stroke="#0052d9" stroke-width="1.35" opacity="1"/><polyline points="118.125,66.188 117.750,66.562 115.875,66.562 115.500,66.938 112.875,67.312 112.500,67.688 110.625,68.062 110.438,68.625 114.375,72.188 114.750,72.188 123.188,80.625 124.312,82.125 126.750,84.938 127.312,84.750 127.312,84.000 128.062,82.500 128.062,81.375 128.438,81.000 128.438,79.875 128.812,79.500 128.812,77.625 129.188,77.250 129.188,72.375 128.812,72.000 128.812,70.500 128.062,69.000 126.375,67.312 124.875,66.562 123.750,66.562 123.375,66.188 118.125,66.188" stroke="#0052d9" stroke-width="1.35" opacity="1"/><polyline points="97.500,74.812 90.750,79.688 82.312,87.750 82.312,88.125 79.688,90.750 79.688,91.125 77.062,94.125 76.312,95.625 75.188,96.750 74.812,97.875 80.062,105.000 87.750,113.062 88.125,113.062 90.750,115.688 91.125,115.688 95.625,119.438 97.875,120.562 104.625,115.688 112.688,108.000 112.688,107.625 115.312,105.000 115.312,104.625 118.312,101.250 119.062,99.750 120.188,98.625 120.562,97.500 115.312,90.375 107.625,82.312 107.250,82.312 104.625,79.688 104.250,79.688 99.750,75.938 97.500,74.812" stroke="#0052d9" stroke-width="1.35" opacity="1"/><polyline points="68.250,110.438 67.312,112.875 67.312,114.000 66.562,115.875 66.562,117.750 66.188,118.125 66.188,123.000 66.562,123.375 66.562,124.875 67.312,126.375 69.000,128.062 70.500,128.812 72.000,128.812 72.375,129.188 77.250,129.188 77.625,128.812 79.500,128.812 79.875,128.438 82.125,128.062 84.750,127.312 85.312,126.750 82.875,125.062 80.625,122.812 80.250,122.812 72.188,114.750 69.938,111.750 68.625,110.438 68.250,110.438" stroke="#0052d9" stroke-width="1.35" opacity="1"/></g><text x="120" y="238" text-anchor="middle" font-size="13" fill="#344054" font-family="system-ui,sans-serif">云联网</text></svg>